0
SECTION
2
HEADER
9
$ACADVER
1
AC1009
9
$INSUNITS
70
6
9
$MEASUREMENT
70
1
9
$LUNITS
70
2
9
$LUPREC
70
6
9
$EXTMIN
10
-0.950000
20
-1.550000
30
0.000000
9
$EXTMAX
10
21.850000
20
10.950000
30
0.000000
9
$LIMMIN
10
-0.950000
20
-1.550000
9
$LIMMAX
10
21.850000
20
10.950000
0
ENDSEC
0
SECTION
2
TABLES
0
TABLE
2
LTYPE
70
2
0
LTYPE
2
CONTINUOUS
70
0
3
Solid line
72
65
73
0
40
0.000000
0
LTYPE
2
DASHED
70
0
3
__ __ __
72
65
73
2
40
0.480000
49
0.300000
49
-0.180000
0
ENDTAB
0
TABLE
2
LAYER
70
14
0
LAYER
2
PLOT-BOUNDARY
70
0
62
7
6
CONTINUOUS
0
LAYER
2
CADASTRAL-HOLE
70
0
62
1
6
CONTINUOUS
0
LAYER
2
DEVELOPABLE-ENVELOPE
70
0
62
3
6
CONTINUOUS
0
LAYER
2
ROAD-FRONTAGE
70
0
62
5
6
CONTINUOUS
0
LAYER
2
ENCUMBRANCE
70
0
62
1
6
DASHED
0
LAYER
2
RESTRICTION
70
0
62
6
6
DASHED
0
LAYER
2
EXISTING-FEATURE
70
0
62
8
6
CONTINUOUS
0
LAYER
2
SETBACK
70
0
62
30
6
DASHED
0
LAYER
2
FOOTPRINT
70
0
62
4
6
CONTINUOUS
0
LAYER
2
PROJECTION
70
0
62
2
6
DASHED
0
LAYER
2
LEVEL
70
0
62
7
6
CONTINUOUS
0
LAYER
2
DIMENSION
70
0
62
2
6
CONTINUOUS
0
LAYER
2
NORTH
70
0
62
7
6
CONTINUOUS
0
LAYER
2
ANNOTATION
70
0
62
7
6
CONTINUOUS
0
ENDTAB
0
TABLE
2
STYLE
70
1
0
STYLE
2
STANDARD
70
0
40
0.000000
41
1.000000
50
0.000000
71
0
42
2.500000
3
txt
4

0
ENDTAB
0
ENDSEC
0
SECTION
2
ENTITIES
999
URBANOS_COORDINATE_UNIT metre
999
URBANOS_DECLARED_SCALE 1:100.000000
999
URBANOS_STATUS READY FOR PROFESSIONAL REVIEW - NOT FOR CONSTRUCTION
999
URBANOS_PATH plot%3Aouter%3Aplot-outer
0
POLYLINE
8
PLOT-BOUNDARY
66
1
70
1
10
0.000000
20
0.000000
30
0.000000
0
VERTEX
8
PLOT-BOUNDARY
10
0.000000
20
0.000000
30
0.000000
0
VERTEX
8
PLOT-BOUNDARY
10
20.000000
20
0.000000
30
0.000000
0
VERTEX
8
PLOT-BOUNDARY
10
20.000000
20
10.000000
30
0.000000
0
VERTEX
8
PLOT-BOUNDARY
10
0.000000
20
10.000000
30
0.000000
0
SEQEND
8
PLOT-BOUNDARY
999
URBANOS_PATH developable%3A0%3Aouter%3Aenvelope-0-outer
0
POLYLINE
8
DEVELOPABLE-ENVELOPE
66
1
70
1
10
0.000000
20
0.000000
30
0.000000
0
VERTEX
8
DEVELOPABLE-ENVELOPE
10
1.000000
20
1.000000
30
0.000000
0
VERTEX
8
DEVELOPABLE-ENVELOPE
10
19.000000
20
1.000000
30
0.000000
0
VERTEX
8
DEVELOPABLE-ENVELOPE
10
19.000000
20
9.000000
30
0.000000
0
VERTEX
8
DEVELOPABLE-ENVELOPE
10
1.000000
20
9.000000
30
0.000000
0
SEQEND
8
DEVELOPABLE-ENVELOPE
999
URBANOS_PATH developable%3A0%3Ahole%3Aenvelope-0-hole-0
0
POLYLINE
8
DEVELOPABLE-ENVELOPE
66
1
70
1
10
0.000000
20
0.000000
30
0.000000
0
VERTEX
8
DEVELOPABLE-ENVELOPE
10
15.000000
20
2.000000
30
0.000000
0
VERTEX
8
DEVELOPABLE-ENVELOPE
10
15.000000
20
6.000000
30
0.000000
0
VERTEX
8
DEVELOPABLE-ENVELOPE
10
16.000000
20
6.000000
30
0.000000
0
VERTEX
8
DEVELOPABLE-ENVELOPE
10
16.000000
20
2.000000
30
0.000000
0
SEQEND
8
DEVELOPABLE-ENVELOPE
999
URBANOS_PATH setback-envelope%3A0%3Aouter%3Aenvelope-0-outer
0
POLYLINE
8
SETBACK
66
1
70
1
10
0.000000
20
0.000000
30
0.000000
0
VERTEX
8
SETBACK
10
1.000000
20
1.000000
30
0.000000
0
VERTEX
8
SETBACK
10
19.000000
20
1.000000
30
0.000000
0
VERTEX
8
SETBACK
10
19.000000
20
9.000000
30
0.000000
0
VERTEX
8
SETBACK
10
1.000000
20
9.000000
30
0.000000
0
SEQEND
8
SETBACK
999
URBANOS_PATH setback-envelope%3A0%3Ahole%3Aenvelope-0-hole-0
0
POLYLINE
8
SETBACK
66
1
70
1
10
0.000000
20
0.000000
30
0.000000
0
VERTEX
8
SETBACK
10
15.000000
20
2.000000
30
0.000000
0
VERTEX
8
SETBACK
10
15.000000
20
6.000000
30
0.000000
0
VERTEX
8
SETBACK
10
16.000000
20
6.000000
30
0.000000
0
VERTEX
8
SETBACK
10
16.000000
20
2.000000
30
0.000000
0
SEQEND
8
SETBACK
999
URBANOS_PATH frontage%3Afrontage-0%3A0
0
POLYLINE
8
ROAD-FRONTAGE
66
1
70
0
10
0.000000
20
0.000000
30
0.000000
0
VERTEX
8
ROAD-FRONTAGE
10
0.000000
20
0.000000
30
0.000000
0
VERTEX
8
ROAD-FRONTAGE
10
20.000000
20
0.000000
30
0.000000
0
SEQEND
8
ROAD-FRONTAGE
999
URBANOS_PATH encumbrance%3Aservice-corridor%3A0%3Aouter%3Aencumbrance-service-corridor-outer
0
POLYLINE
8
ENCUMBRANCE
66
1
70
1
10
0.000000
20
0.000000
30
0.000000
0
VERTEX
8
ENCUMBRANCE
10
15.000000
20
2.000000
30
0.000000
0
VERTEX
8
ENCUMBRANCE
10
16.000000
20
2.000000
30
0.000000
0
VERTEX
8
ENCUMBRANCE
10
16.000000
20
6.000000
30
0.000000
0
VERTEX
8
ENCUMBRANCE
10
15.000000
20
6.000000
30
0.000000
0
SEQEND
8
ENCUMBRANCE
999
URBANOS_PATH existing-feature%3Aexisting-wall%3Apolyline
0
POLYLINE
8
EXISTING-FEATURE
66
1
70
0
10
0.000000
20
0.000000
30
0.000000
0
VERTEX
8
EXISTING-FEATURE
10
2.000000
20
8.000000
30
0.000000
0
VERTEX
8
EXISTING-FEATURE
10
7.000000
20
8.000000
30
0.000000
0
SEQEND
8
EXISTING-FEATURE
999
URBANOS_PATH footprint%3Aproposed-building%3Aouter%3Afootprint-proposed-building
0
POLYLINE
8
FOOTPRINT
66
1
70
1
10
0.000000
20
0.000000
30
0.000000
0
VERTEX
8
FOOTPRINT
10
3.000000
20
3.000000
30
0.000000
0
VERTEX
8
FOOTPRINT
10
9.000000
20
3.000000
30
0.000000
0
VERTEX
8
FOOTPRINT
10
9.000000
20
7.000000
30
0.000000
0
VERTEX
8
FOOTPRINT
10
3.000000
20
7.000000
30
0.000000
0
SEQEND
8
FOOTPRINT
999
URBANOS_PATH footprint%3Aproposed-building%3Ahole%3Afootprint-proposed-building-hole-0
0
POLYLINE
8
FOOTPRINT
66
1
70
1
10
0.000000
20
0.000000
30
0.000000
0
VERTEX
8
FOOTPRINT
10
5.000000
20
4.000000
30
0.000000
0
VERTEX
8
FOOTPRINT
10
6.000000
20
4.000000
30
0.000000
0
VERTEX
8
FOOTPRINT
10
6.000000
20
5.000000
30
0.000000
0
VERTEX
8
FOOTPRINT
10
5.000000
20
5.000000
30
0.000000
0
SEQEND
8
FOOTPRINT
999
URBANOS_PATH projection%3Aentrance-canopy%3Aouter%3Aprojection-entrance-canopy
0
POLYLINE
8
PROJECTION
66
1
70
1
10
0.000000
20
0.000000
30
0.000000
0
VERTEX
8
PROJECTION
10
9.000000
20
4.000000
30
0.000000
0
VERTEX
8
PROJECTION
10
9.800000
20
4.000000
30
0.000000
0
VERTEX
8
PROJECTION
10
9.800000
20
6.000000
30
0.000000
0
VERTEX
8
PROJECTION
10
9.000000
20
6.000000
30
0.000000
0
SEQEND
8
PROJECTION
999
URBANOS_PATH auto-dimension%3Aplot-outer%23e0%3Aline
0
POLYLINE
8
DIMENSION
66
1
70
0
10
0.000000
20
0.000000
30
0.000000
0
VERTEX
8
DIMENSION
10
0.000000
20
-0.800000
30
0.000000
0
VERTEX
8
DIMENSION
10
20.000000
20
-0.800000
30
0.000000
0
SEQEND
8
DIMENSION
999
URBANOS_PATH auto-dimension%3Aplot-outer%23e0%3Aextension-a
0
POLYLINE
8
DIMENSION
66
1
70
0
10
0.000000
20
0.000000
30
0.000000
0
VERTEX
8
DIMENSION
10
0.000000
20
0.000000
30
0.000000
0
VERTEX
8
DIMENSION
10
0.000000
20
-0.950000
30
0.000000
0
SEQEND
8
DIMENSION
999
URBANOS_PATH auto-dimension%3Aplot-outer%23e0%3Aextension-b
0
POLYLINE
8
DIMENSION
66
1
70
0
10
0.000000
20
0.000000
30
0.000000
0
VERTEX
8
DIMENSION
10
20.000000
20
0.000000
30
0.000000
0
VERTEX
8
DIMENSION
10
20.000000
20
-0.950000
30
0.000000
0
SEQEND
8
DIMENSION
999
URBANOS_PATH auto-dimension%3Aplot-outer%23e0%3Aarrow-a
0
POLYLINE
8
DIMENSION
66
1
70
0
10
0.000000
20
0.000000
30
0.000000
0
VERTEX
8
DIMENSION
10
0.180000
20
-0.881000
30
0.000000
0
VERTEX
8
DIMENSION
10
0.000000
20
-0.800000
30
0.000000
0
VERTEX
8
DIMENSION
10
0.180000
20
-0.719000
30
0.000000
0
SEQEND
8
DIMENSION
999
URBANOS_PATH auto-dimension%3Aplot-outer%23e0%3Aarrow-b
0
POLYLINE
8
DIMENSION
66
1
70
0
10
0.000000
20
0.000000
30
0.000000
0
VERTEX
8
DIMENSION
10
19.820000
20
-0.881000
30
0.000000
0
VERTEX
8
DIMENSION
10
20.000000
20
-0.800000
30
0.000000
0
VERTEX
8
DIMENSION
10
19.820000
20
-0.719000
30
0.000000
0
SEQEND
8
DIMENSION
999
URBANOS_PATH auto-dimension%3Aplot-outer%23e1%3Aline
0
POLYLINE
8
DIMENSION
66
1
70
0
10
0.000000
20
0.000000
30
0.000000
0
VERTEX
8
DIMENSION
10
20.800000
20
0.000000
30
0.000000
0
VERTEX
8
DIMENSION
10
20.800000
20
10.000000
30
0.000000
0
SEQEND
8
DIMENSION
999
URBANOS_PATH auto-dimension%3Aplot-outer%23e1%3Aextension-a
0
POLYLINE
8
DIMENSION
66
1
70
0
10
0.000000
20
0.000000
30
0.000000
0
VERTEX
8
DIMENSION
10
20.000000
20
0.000000
30
0.000000
0
VERTEX
8
DIMENSION
10
20.950000
20
0.000000
30
0.000000
0
SEQEND
8
DIMENSION
999
URBANOS_PATH auto-dimension%3Aplot-outer%23e1%3Aextension-b
0
POLYLINE
8
DIMENSION
66
1
70
0
10
0.000000
20
0.000000
30
0.000000
0
VERTEX
8
DIMENSION
10
20.000000
20
10.000000
30
0.000000
0
VERTEX
8
DIMENSION
10
20.950000
20
10.000000
30
0.000000
0
SEQEND
8
DIMENSION
999
URBANOS_PATH auto-dimension%3Aplot-outer%23e1%3Aarrow-a
0
POLYLINE
8
DIMENSION
66
1
70
0
10
0.000000
20
0.000000
30
0.000000
0
VERTEX
8
DIMENSION
10
20.881000
20
0.180000
30
0.000000
0
VERTEX
8
DIMENSION
10
20.800000
20
0.000000
30
0.000000
0
VERTEX
8
DIMENSION
10
20.719000
20
0.180000
30
0.000000
0
SEQEND
8
DIMENSION
999
URBANOS_PATH auto-dimension%3Aplot-outer%23e1%3Aarrow-b
0
POLYLINE
8
DIMENSION
66
1
70
0
10
0.000000
20
0.000000
30
0.000000
0
VERTEX
8
DIMENSION
10
20.881000
20
9.820000
30
0.000000
0
VERTEX
8
DIMENSION
10
20.800000
20
10.000000
30
0.000000
0
VERTEX
8
DIMENSION
10
20.719000
20
9.820000
30
0.000000
0
SEQEND
8
DIMENSION
999
URBANOS_PATH auto-dimension%3Aplot-outer%23e2%3Aline
0
POLYLINE
8
DIMENSION
66
1
70
0
10
0.000000
20
0.000000
30
0.000000
0
VERTEX
8
DIMENSION
10
20.000000
20
10.800000
30
0.000000
0
VERTEX
8
DIMENSION
10
0.000000
20
10.800000
30
0.000000
0
SEQEND
8
DIMENSION
999
URBANOS_PATH auto-dimension%3Aplot-outer%23e2%3Aextension-a
0
POLYLINE
8
DIMENSION
66
1
70
0
10
0.000000
20
0.000000
30
0.000000
0
VERTEX
8
DIMENSION
10
20.000000
20
10.000000
30
0.000000
0
VERTEX
8
DIMENSION
10
20.000000
20
10.950000
30
0.000000
0
SEQEND
8
DIMENSION
999
URBANOS_PATH auto-dimension%3Aplot-outer%23e2%3Aextension-b
0
POLYLINE
8
DIMENSION
66
1
70
0
10
0.000000
20
0.000000
30
0.000000
0
VERTEX
8
DIMENSION
10
0.000000
20
10.000000
30
0.000000
0
VERTEX
8
DIMENSION
10
0.000000
20
10.950000
30
0.000000
0
SEQEND
8
DIMENSION
999
URBANOS_PATH auto-dimension%3Aplot-outer%23e2%3Aarrow-a
0
POLYLINE
8
DIMENSION
66
1
70
0
10
0.000000
20
0.000000
30
0.000000
0
VERTEX
8
DIMENSION
10
19.820000
20
10.881000
30
0.000000
0
VERTEX
8
DIMENSION
10
20.000000
20
10.800000
30
0.000000
0
VERTEX
8
DIMENSION
10
19.820000
20
10.719000
30
0.000000
0
SEQEND
8
DIMENSION
999
URBANOS_PATH auto-dimension%3Aplot-outer%23e2%3Aarrow-b
0
POLYLINE
8
DIMENSION
66
1
70
0
10
0.000000
20
0.000000
30
0.000000
0
VERTEX
8
DIMENSION
10
0.180000
20
10.881000
30
0.000000
0
VERTEX
8
DIMENSION
10
0.000000
20
10.800000
30
0.000000
0
VERTEX
8
DIMENSION
10
0.180000
20
10.719000
30
0.000000
0
SEQEND
8
DIMENSION
999
URBANOS_PATH auto-dimension%3Aplot-outer%23e3%3Aline
0
POLYLINE
8
DIMENSION
66
1
70
0
10
0.000000
20
0.000000
30
0.000000
0
VERTEX
8
DIMENSION
10
-0.800000
20
10.000000
30
0.000000
0
VERTEX
8
DIMENSION
10
-0.800000
20
0.000000
30
0.000000
0
SEQEND
8
DIMENSION
999
URBANOS_PATH auto-dimension%3Aplot-outer%23e3%3Aextension-a
0
POLYLINE
8
DIMENSION
66
1
70
0
10
0.000000
20
0.000000
30
0.000000
0
VERTEX
8
DIMENSION
10
0.000000
20
10.000000
30
0.000000
0
VERTEX
8
DIMENSION
10
-0.950000
20
10.000000
30
0.000000
0
SEQEND
8
DIMENSION
999
URBANOS_PATH auto-dimension%3Aplot-outer%23e3%3Aextension-b
0
POLYLINE
8
DIMENSION
66
1
70
0
10
0.000000
20
0.000000
30
0.000000
0
VERTEX
8
DIMENSION
10
0.000000
20
0.000000
30
0.000000
0
VERTEX
8
DIMENSION
10
-0.950000
20
0.000000
30
0.000000
0
SEQEND
8
DIMENSION
999
URBANOS_PATH auto-dimension%3Aplot-outer%23e3%3Aarrow-a
0
POLYLINE
8
DIMENSION
66
1
70
0
10
0.000000
20
0.000000
30
0.000000
0
VERTEX
8
DIMENSION
10
-0.881000
20
9.820000
30
0.000000
0
VERTEX
8
DIMENSION
10
-0.800000
20
10.000000
30
0.000000
0
VERTEX
8
DIMENSION
10
-0.719000
20
9.820000
30
0.000000
0
SEQEND
8
DIMENSION
999
URBANOS_PATH auto-dimension%3Aplot-outer%23e3%3Aarrow-b
0
POLYLINE
8
DIMENSION
66
1
70
0
10
0.000000
20
0.000000
30
0.000000
0
VERTEX
8
DIMENSION
10
-0.881000
20
0.180000
30
0.000000
0
VERTEX
8
DIMENSION
10
-0.800000
20
0.000000
30
0.000000
0
VERTEX
8
DIMENSION
10
-0.719000
20
0.180000
30
0.000000
0
SEQEND
8
DIMENSION
999
URBANOS_PATH north%3Ashaft
0
POLYLINE
8
NORTH
66
1
70
0
10
0.000000
20
0.000000
30
0.000000
0
VERTEX
8
NORTH
10
21.600000
20
8.500000
30
0.000000
0
VERTEX
8
NORTH
10
21.600000
20
10.000000
30
0.000000
0
SEQEND
8
NORTH
999
URBANOS_PATH north%3Aarrowhead
0
POLYLINE
8
NORTH
66
1
70
1
10
0.000000
20
0.000000
30
0.000000
0
VERTEX
8
NORTH
10
21.350000
20
9.750000
30
0.000000
0
VERTEX
8
NORTH
10
21.600000
20
10.000000
30
0.000000
0
VERTEX
8
NORTH
10
21.850000
20
9.750000
30
0.000000
0
SEQEND
8
NORTH
999
URBANOS_TEXT frontage%3Afrontage-0%3A0%3Alabel
0
TEXT
8
ROAD-FRONTAGE
10
10.000000
20
0.400000
30
0.000000
40
0.250000
1
Acceptance Road / CW 12.000 m
50
0.000000
7
STANDARD
72
1
73
2
11
10.000000
21
0.400000
31
0.000000
999
URBANOS_TEXT footprint%3Aproposed-building%3Alabel
0
TEXT
8
FOOTPRINT
10
6.000000
20
5.000000
30
0.000000
40
0.260000
1
PROPOSED BUILDING / 2 STOREY
50
0.000000
7
STANDARD
72
1
73
2
11
6.000000
21
5.000000
31
0.000000
999
URBANOS_TEXT auto-dimension%3Aplot-outer%23e0%3Atext
0
TEXT
8
DIMENSION
10
10.000000
20
-0.800000
30
0.000000
40
0.240000
1
20.000 m
50
0.000000
7
STANDARD
72
1
73
2
11
10.000000
21
-0.800000
31
0.000000
999
URBANOS_TEXT auto-dimension%3Aplot-outer%23e1%3Atext
0
TEXT
8
DIMENSION
10
20.800000
20
5.000000
30
0.000000
40
0.240000
1
10.000 m
50
90.000000
7
STANDARD
72
1
73
2
11
20.800000
21
5.000000
31
0.000000
999
URBANOS_TEXT auto-dimension%3Aplot-outer%23e2%3Atext
0
TEXT
8
DIMENSION
10
10.000000
20
10.800000
30
0.000000
40
0.240000
1
20.000 m
50
360.000000
7
STANDARD
72
1
73
2
11
10.000000
21
10.800000
31
0.000000
999
URBANOS_TEXT auto-dimension%3Aplot-outer%23e3%3Atext
0
TEXT
8
DIMENSION
10
-0.800000
20
5.000000
30
0.000000
40
0.240000
1
10.000 m
50
450.000000
7
STANDARD
72
1
73
2
11
-0.800000
21
5.000000
31
0.000000
999
URBANOS_TEXT north%3Alabel
0
TEXT
8
NORTH
10
21.600000
20
10.300000
30
0.000000
40
0.320000
1
N (TRUE)
50
0.000000
7
STANDARD
72
1
73
2
11
21.600000
21
10.300000
31
0.000000
999
URBANOS_TEXT review-status
0
TEXT
8
ANNOTATION
10
-0.950000
20
-1.550000
30
0.000000
40
0.240000
1
READY FOR PROFESSIONAL REVIEW - NOT FOR CONSTRUCTION
50
0.000000
7
STANDARD
72
0
73
2
11
-0.950000
21
-1.550000
31
0.000000
0
ENDSEC
0
EOF
