0
SECTION
2
HEADER
9
$ACADVER
1
AC1009
9
$INSUNITS
70
6
9
$MEASUREMENT
70
1
9
$LUNITS
70
2
9
$LUPREC
70
6
9
$EXTMIN
10
-1.830000
20
-3.758800
30
0.000000
9
$EXTMAX
10
13.337600
20
12.383600
30
0.000000
9
$LIMMIN
10
-1.830000
20
-3.758800
9
$LIMMAX
10
13.337600
20
12.383600
0
ENDSEC
0
SECTION
2
TABLES
0
TABLE
2
LTYPE
70
2
0
LTYPE
2
CONTINUOUS
70
0
3
Solid line
72
65
73
0
40
0.000000
0
LTYPE
2
DASHED
70
0
3
__ __ __
72
65
73
2
40
0.240000
49
0.150000
49
-0.090000
0
ENDTAB
0
TABLE
2
LAYER
70
9
0
LAYER
2
ENVELOPE
70
0
62
7
6
CONTINUOUS
0
LAYER
2
ROOM
70
0
62
8
6
CONTINUOUS
0
LAYER
2
BALCONY
70
0
62
8
6
CONTINUOUS
0
LAYER
2
DOOR
70
0
62
30
6
CONTINUOUS
0
LAYER
2
WINDOW
70
0
62
5
6
CONTINUOUS
0
LAYER
2
ROOM-TEXT
70
0
62
7
6
CONTINUOUS
0
LAYER
2
DIMENSION
70
0
62
2
6
CONTINUOUS
0
LAYER
2
NORTH
70
0
62
7
6
CONTINUOUS
0
LAYER
2
ANNOTATION
70
0
62
7
6
CONTINUOUS
0
ENDTAB
0
TABLE
2
STYLE
70
1
0
STYLE
2
STANDARD
70
0
40
0.000000
41
1.000000
50
0.000000
71
0
42
2.500000
3
txt
4

0
ENDTAB
0
ENDSEC
0
SECTION
2
ENTITIES
999
URBANOS_COORDINATE_UNIT metre
999
URBANOS_DECLARED_SCALE 1:50.000000
999
URBANOS_STATUS RESEARCH DRAFT - NOT FOR CONSTRUCTION
999
URBANOS_SOURCE Spaze Privy AT4 brochure, 2BHK unit and cluster plan (super area 1465.0 sq ft) - brochure marks all dimensions indicative; schedule transcribed 2026-08-08
999
URBANOS_ASSUMPTION WALLS ASSUMED 230 MM EXTERNAL / 115 MM INTERNAL (M-U4 PENDING)
999
URBANOS_ASSUMPTION CIRCULATION AND SHAFT SIZES ARE TEMPLATE ASSUMPTIONS (M-U2 PENDING)
999
URBANOS_DIGEST 9da86ce485029466615b8a1c688a8214b8dce5edd0b1de2f608ec221a15d93e5
999
URBANOS_PATH envelope%2F0
0
POLYLINE
8
ENVELOPE
66
1
70
0
10
0.000000
20
0.000000
30
0.000000
0
VERTEX
8
ENVELOPE
10
-0.230000
20
-0.230000
30
0.000000
0
VERTEX
8
ENVELOPE
10
11.737600
20
-0.230000
30
0.000000
0
VERTEX
8
ENVELOPE
10
11.737600
20
2.490600
30
0.000000
0
VERTEX
8
ENVELOPE
10
10.594600
20
2.490600
30
0.000000
0
VERTEX
8
ENVELOPE
10
10.594600
20
2.629600
30
0.000000
0
SEQEND
8
ENVELOPE
999
URBANOS_PATH envelope%2F1
0
POLYLINE
8
ENVELOPE
66
1
70
0
10
0.000000
20
0.000000
30
0.000000
0
VERTEX
8
ENVELOPE
10
10.594600
20
3.696400
30
0.000000
0
VERTEX
8
ENVELOPE
10
10.594600
20
5.475800
30
0.000000
0
VERTEX
8
ENVELOPE
10
9.680200
20
5.475800
30
0.000000
0
VERTEX
8
ENVELOPE
10
9.680200
20
9.096000
30
0.000000
0
VERTEX
8
ENVELOPE
10
6.288600
20
9.096000
30
0.000000
0
VERTEX
8
ENVELOPE
10
6.288600
20
10.328600
30
0.000000
0
VERTEX
8
ENVELOPE
10
3.542600
20
10.328600
30
0.000000
0
VERTEX
8
ENVELOPE
10
3.542600
20
9.654800
30
0.000000
0
VERTEX
8
ENVELOPE
10
-0.230000
20
9.654800
30
0.000000
0
VERTEX
8
ENVELOPE
10
-0.230000
20
5.130800
30
0.000000
0
VERTEX
8
ENVELOPE
10
2.018600
20
5.130800
30
0.000000
0
VERTEX
8
ENVELOPE
10
2.018600
20
3.506600
30
0.000000
0
VERTEX
8
ENVELOPE
10
-0.230000
20
3.506600
30
0.000000
0
VERTEX
8
ENVELOPE
10
-0.230000
20
-0.230000
30
0.000000
0
SEQEND
8
ENVELOPE
999
URBANOS_PATH room%2Fstudy%2F0
0
POLYLINE
8
ROOM
66
1
70
0
10
0.000000
20
0.000000
30
0.000000
0
VERTEX
8
ROOM
10
0.000000
20
0.000000
30
0.000000
0
VERTEX
8
ROOM
10
2.133600
20
0.000000
30
0.000000
0
VERTEX
8
ROOM
10
2.133600
20
1.257300
30
0.000000
0
SEQEND
8
ROOM
999
URBANOS_PATH room%2Fstudy%2F1
0
POLYLINE
8
ROOM
66
1
70
0
10
0.000000
20
0.000000
30
0.000000
0
VERTEX
8
ROOM
10
2.133600
20
2.019300
30
0.000000
0
VERTEX
8
ROOM
10
2.133600
20
3.276600
30
0.000000
0
VERTEX
8
ROOM
10
0.000000
20
3.276600
30
0.000000
0
VERTEX
8
ROOM
10
0.000000
20
0.000000
30
0.000000
0
SEQEND
8
ROOM
999
URBANOS_PATH room%2Fdwg-dining%2F0
0
POLYLINE
8
ROOM
66
1
70
0
10
0.000000
20
0.000000
30
0.000000
0
VERTEX
8
ROOM
10
2.248600
20
0.000000
30
0.000000
0
VERTEX
8
ROOM
10
4.229800
20
0.000000
30
0.000000
0
SEQEND
8
ROOM
999
URBANOS_PATH room%2Fdwg-dining%2F1
0
POLYLINE
8
ROOM
66
1
70
0
10
0.000000
20
0.000000
30
0.000000
0
VERTEX
8
ROOM
10
6.058600
20
0.000000
30
0.000000
0
VERTEX
8
ROOM
10
8.039800
20
0.000000
30
0.000000
0
VERTEX
8
ROOM
10
8.039800
20
0.673100
30
0.000000
0
SEQEND
8
ROOM
999
URBANOS_PATH room%2Fdwg-dining%2F2
0
POLYLINE
8
ROOM
66
1
70
0
10
0.000000
20
0.000000
30
0.000000
0
VERTEX
8
ROOM
10
8.039800
20
1.587500
30
0.000000
0
VERTEX
8
ROOM
10
8.039800
20
2.705800
30
0.000000
0
SEQEND
8
ROOM
999
URBANOS_PATH room%2Fdwg-dining%2F3
0
POLYLINE
8
ROOM
66
1
70
0
10
0.000000
20
0.000000
30
0.000000
0
VERTEX
8
ROOM
10
8.039800
20
3.620200
30
0.000000
0
VERTEX
8
ROOM
10
8.039800
20
4.064000
30
0.000000
0
VERTEX
8
ROOM
10
5.677600
20
4.064000
30
0.000000
0
SEQEND
8
ROOM
999
URBANOS_PATH room%2Fdwg-dining%2F4
0
POLYLINE
8
ROOM
66
1
70
0
10
0.000000
20
0.000000
30
0.000000
0
VERTEX
8
ROOM
10
4.610800
20
4.064000
30
0.000000
0
VERTEX
8
ROOM
10
2.248600
20
4.064000
30
0.000000
0
VERTEX
8
ROOM
10
2.248600
20
2.019300
30
0.000000
0
SEQEND
8
ROOM
999
URBANOS_PATH room%2Fdwg-dining%2F5
0
POLYLINE
8
ROOM
66
1
70
0
10
0.000000
20
0.000000
30
0.000000
0
VERTEX
8
ROOM
10
2.248600
20
1.257300
30
0.000000
0
VERTEX
8
ROOM
10
2.248600
20
0.000000
30
0.000000
0
SEQEND
8
ROOM
999
URBANOS_PATH room%2Fkitchen%2F0
0
POLYLINE
8
ROOM
66
1
70
0
10
0.000000
20
0.000000
30
0.000000
0
VERTEX
8
ROOM
10
8.154800
20
0.000000
30
0.000000
0
VERTEX
8
ROOM
10
11.507600
20
0.000000
30
0.000000
0
VERTEX
8
ROOM
10
11.507600
20
2.260600
30
0.000000
0
VERTEX
8
ROOM
10
8.154800
20
2.260600
30
0.000000
0
VERTEX
8
ROOM
10
8.154800
20
1.587500
30
0.000000
0
SEQEND
8
ROOM
999
URBANOS_PATH room%2Fkitchen%2F1
0
POLYLINE
8
ROOM
66
1
70
0
10
0.000000
20
0.000000
30
0.000000
0
VERTEX
8
ROOM
10
8.154800
20
0.673100
30
0.000000
0
VERTEX
8
ROOM
10
8.154800
20
0.000000
30
0.000000
0
SEQEND
8
ROOM
999
URBANOS_PATH room%2Flobby%2F0
0
POLYLINE
8
ROOM
66
1
70
0
10
0.000000
20
0.000000
30
0.000000
0
VERTEX
8
ROOM
10
8.154800
20
2.375600
30
0.000000
0
VERTEX
8
ROOM
10
10.364600
20
2.375600
30
0.000000
0
VERTEX
8
ROOM
10
10.364600
20
2.629600
30
0.000000
0
SEQEND
8
ROOM
999
URBANOS_PATH room%2Flobby%2F1
0
POLYLINE
8
ROOM
66
1
70
0
10
0.000000
20
0.000000
30
0.000000
0
VERTEX
8
ROOM
10
10.364600
20
3.696400
30
0.000000
0
VERTEX
8
ROOM
10
10.364600
20
3.950400
30
0.000000
0
VERTEX
8
ROOM
10
9.716900
20
3.950400
30
0.000000
0
SEQEND
8
ROOM
999
URBANOS_PATH room%2Flobby%2F2
0
POLYLINE
8
ROOM
66
1
70
0
10
0.000000
20
0.000000
30
0.000000
0
VERTEX
8
ROOM
10
8.802500
20
3.950400
30
0.000000
0
VERTEX
8
ROOM
10
8.154800
20
3.950400
30
0.000000
0
VERTEX
8
ROOM
10
8.154800
20
3.620200
30
0.000000
0
SEQEND
8
ROOM
999
URBANOS_PATH room%2Flobby%2F3
0
POLYLINE
8
ROOM
66
1
70
0
10
0.000000
20
0.000000
30
0.000000
0
VERTEX
8
ROOM
10
8.154800
20
2.705800
30
0.000000
0
VERTEX
8
ROOM
10
8.154800
20
2.375600
30
0.000000
0
SEQEND
8
ROOM
999
URBANOS_PATH room%2Fmaster-bedroom%2F0
0
POLYLINE
8
ROOM
66
1
70
0
10
0.000000
20
0.000000
30
0.000000
0
VERTEX
8
ROOM
10
0.000000
20
5.360800
30
0.000000
0
VERTEX
8
ROOM
10
2.495900
20
5.360800
30
0.000000
0
SEQEND
8
ROOM
999
URBANOS_PATH room%2Fmaster-bedroom%2F1
0
POLYLINE
8
ROOM
66
1
70
0
10
0.000000
20
0.000000
30
0.000000
0
VERTEX
8
ROOM
10
3.410300
20
5.360800
30
0.000000
0
VERTEX
8
ROOM
10
3.657600
20
5.360800
30
0.000000
0
VERTEX
8
ROOM
10
3.657600
20
8.212300
30
0.000000
0
SEQEND
8
ROOM
999
URBANOS_PATH room%2Fmaster-bedroom%2F2
0
POLYLINE
8
ROOM
66
1
70
0
10
0.000000
20
0.000000
30
0.000000
0
VERTEX
8
ROOM
10
3.657600
20
8.974300
30
0.000000
0
VERTEX
8
ROOM
10
3.657600
20
9.424800
30
0.000000
0
VERTEX
8
ROOM
10
2.743200
20
9.424800
30
0.000000
0
SEQEND
8
ROOM
999
URBANOS_PATH room%2Fmaster-bedroom%2F3
0
POLYLINE
8
ROOM
66
1
70
0
10
0.000000
20
0.000000
30
0.000000
0
VERTEX
8
ROOM
10
0.914400
20
9.424800
30
0.000000
0
VERTEX
8
ROOM
10
0.000000
20
9.424800
30
0.000000
0
VERTEX
8
ROOM
10
0.000000
20
5.360800
30
0.000000
0
SEQEND
8
ROOM
999
URBANOS_PATH room%2Ftoilet-master%2F0
0
POLYLINE
8
ROOM
66
1
70
0
10
0.000000
20
0.000000
30
0.000000
0
VERTEX
8
ROOM
10
3.772600
20
7.761800
30
0.000000
0
VERTEX
8
ROOM
10
5.753800
20
7.761800
30
0.000000
0
VERTEX
8
ROOM
10
5.753800
20
10.098600
30
0.000000
0
VERTEX
8
ROOM
10
3.772600
20
10.098600
30
0.000000
0
VERTEX
8
ROOM
10
3.772600
20
8.974300
30
0.000000
0
SEQEND
8
ROOM
999
URBANOS_PATH room%2Ftoilet-master%2F1
0
POLYLINE
8
ROOM
66
1
70
0
10
0.000000
20
0.000000
30
0.000000
0
VERTEX
8
ROOM
10
3.772600
20
8.212300
30
0.000000
0
VERTEX
8
ROOM
10
3.772600
20
7.761800
30
0.000000
0
SEQEND
8
ROOM
999
URBANOS_PATH room%2Ftoilet-common%2F0
0
POLYLINE
8
ROOM
66
1
70
0
10
0.000000
20
0.000000
30
0.000000
0
VERTEX
8
ROOM
10
3.772600
20
5.360800
30
0.000000
0
VERTEX
8
ROOM
10
4.306000
20
5.360800
30
0.000000
0
SEQEND
8
ROOM
999
URBANOS_PATH room%2Ftoilet-common%2F1
0
POLYLINE
8
ROOM
66
1
70
0
10
0.000000
20
0.000000
30
0.000000
0
VERTEX
8
ROOM
10
5.068000
20
5.360800
30
0.000000
0
VERTEX
8
ROOM
10
5.601400
20
5.360800
30
0.000000
0
VERTEX
8
ROOM
10
5.601400
20
7.646800
30
0.000000
0
VERTEX
8
ROOM
10
3.772600
20
7.646800
30
0.000000
0
VERTEX
8
ROOM
10
3.772600
20
5.360800
30
0.000000
0
SEQEND
8
ROOM
999
URBANOS_PATH room%2Fbedroom-2%2F0
0
POLYLINE
8
ROOM
66
1
70
0
10
0.000000
20
0.000000
30
0.000000
0
VERTEX
8
ROOM
10
6.173600
20
5.360800
30
0.000000
0
VERTEX
8
ROOM
10
7.354700
20
5.360800
30
0.000000
0
SEQEND
8
ROOM
999
URBANOS_PATH room%2Fbedroom-2%2F1
0
POLYLINE
8
ROOM
66
1
70
0
10
0.000000
20
0.000000
30
0.000000
0
VERTEX
8
ROOM
10
8.269100
20
5.360800
30
0.000000
0
VERTEX
8
ROOM
10
9.450200
20
5.360800
30
0.000000
0
VERTEX
8
ROOM
10
9.450200
20
6.199000
30
0.000000
0
SEQEND
8
ROOM
999
URBANOS_PATH room%2Fbedroom-2%2F2
0
POLYLINE
8
ROOM
66
1
70
0
10
0.000000
20
0.000000
30
0.000000
0
VERTEX
8
ROOM
10
9.450200
20
8.027800
30
0.000000
0
VERTEX
8
ROOM
10
9.450200
20
8.866000
30
0.000000
0
VERTEX
8
ROOM
10
6.173600
20
8.866000
30
0.000000
0
VERTEX
8
ROOM
10
6.173600
20
5.360800
30
0.000000
0
SEQEND
8
ROOM
999
URBANOS_PATH room%2Fcorridor%2F0
0
POLYLINE
8
ROOM
66
1
70
0
10
0.000000
20
0.000000
30
0.000000
0
VERTEX
8
ROOM
10
2.248600
20
4.179000
30
0.000000
0
VERTEX
8
ROOM
10
4.610800
20
4.179000
30
0.000000
0
SEQEND
8
ROOM
999
URBANOS_PATH room%2Fcorridor%2F1
0
POLYLINE
8
ROOM
66
1
70
0
10
0.000000
20
0.000000
30
0.000000
0
VERTEX
8
ROOM
10
5.677600
20
4.179000
30
0.000000
0
VERTEX
8
ROOM
10
8.802500
20
4.179000
30
0.000000
0
SEQEND
8
ROOM
999
URBANOS_PATH room%2Fcorridor%2F2
0
POLYLINE
8
ROOM
66
1
70
0
10
0.000000
20
0.000000
30
0.000000
0
VERTEX
8
ROOM
10
9.716900
20
4.179000
30
0.000000
0
VERTEX
8
ROOM
10
10.364600
20
4.179000
30
0.000000
0
VERTEX
8
ROOM
10
10.364600
20
5.245800
30
0.000000
0
VERTEX
8
ROOM
10
8.269100
20
5.245800
30
0.000000
0
SEQEND
8
ROOM
999
URBANOS_PATH room%2Fcorridor%2F3
0
POLYLINE
8
ROOM
66
1
70
0
10
0.000000
20
0.000000
30
0.000000
0
VERTEX
8
ROOM
10
7.354700
20
5.245800
30
0.000000
0
VERTEX
8
ROOM
10
5.068000
20
5.245800
30
0.000000
0
SEQEND
8
ROOM
999
URBANOS_PATH room%2Fcorridor%2F4
0
POLYLINE
8
ROOM
66
1
70
0
10
0.000000
20
0.000000
30
0.000000
0
VERTEX
8
ROOM
10
4.306000
20
5.245800
30
0.000000
0
VERTEX
8
ROOM
10
3.410300
20
5.245800
30
0.000000
0
SEQEND
8
ROOM
999
URBANOS_PATH room%2Fcorridor%2F5
0
POLYLINE
8
ROOM
66
1
70
0
10
0.000000
20
0.000000
30
0.000000
0
VERTEX
8
ROOM
10
2.495900
20
5.245800
30
0.000000
0
VERTEX
8
ROOM
10
2.248600
20
5.245800
30
0.000000
0
VERTEX
8
ROOM
10
2.248600
20
4.179000
30
0.000000
0
SEQEND
8
ROOM
999
URBANOS_PATH room%2Fshaft%2F0
0
POLYLINE
8
ROOM
66
1
70
0
10
0.000000
20
0.000000
30
0.000000
0
VERTEX
8
ROOM
10
5.753800
20
5.360800
30
0.000000
0
VERTEX
8
ROOM
10
6.058600
20
5.360800
30
0.000000
0
VERTEX
8
ROOM
10
6.058600
20
10.098600
30
0.000000
0
VERTEX
8
ROOM
10
5.753800
20
10.098600
30
0.000000
0
VERTEX
8
ROOM
10
5.753800
20
5.360800
30
0.000000
0
SEQEND
8
ROOM
999
URBANOS_PATH balcony%2Fbalcony-living
0
POLYLINE
8
BALCONY
66
1
70
1
10
0.000000
20
0.000000
30
0.000000
0
VERTEX
8
BALCONY
10
2.705800
20
-2.058800
30
0.000000
0
VERTEX
8
BALCONY
10
7.582600
20
-2.058800
30
0.000000
0
VERTEX
8
BALCONY
10
7.582600
20
-0.230000
30
0.000000
0
VERTEX
8
BALCONY
10
2.705800
20
-0.230000
30
0.000000
0
SEQEND
8
BALCONY
999
URBANOS_PATH balcony%2Fbalcony-master
0
POLYLINE
8
BALCONY
66
1
70
1
10
0.000000
20
0.000000
30
0.000000
0
VERTEX
8
BALCONY
10
0.000000
20
9.654800
30
0.000000
0
VERTEX
8
BALCONY
10
3.657600
20
9.654800
30
0.000000
0
VERTEX
8
BALCONY
10
3.657600
20
11.483600
30
0.000000
0
VERTEX
8
BALCONY
10
0.000000
20
11.483600
30
0.000000
0
SEQEND
8
BALCONY
999
URBANOS_PATH balcony%2Fbalcony-br2
0
POLYLINE
8
BALCONY
66
1
70
1
10
0.000000
20
0.000000
30
0.000000
0
VERTEX
8
BALCONY
10
9.680200
20
5.360800
30
0.000000
0
VERTEX
8
BALCONY
10
11.509000
20
5.360800
30
0.000000
0
VERTEX
8
BALCONY
10
11.509000
20
8.866000
30
0.000000
0
VERTEX
8
BALCONY
10
9.680200
20
8.866000
30
0.000000
0
SEQEND
8
BALCONY
999
URBANOS_PATH door%2Fentry%2F0%2Fleaf
0
POLYLINE
8
DOOR
66
1
70
0
10
0.000000
20
0.000000
30
0.000000
0
VERTEX
8
DOOR
10
10.479600
20
2.629600
30
0.000000
0
VERTEX
8
DOOR
10
10.479600
20
3.696400
30
0.000000
0
SEQEND
8
DOOR
999
URBANOS_PATH door%2Fentry%2F0%2Fswing
0
POLYLINE
8
DOOR
66
1
70
0
10
0.000000
20
0.000000
30
0.000000
0
VERTEX
8
DOOR
10
10.479600
20
3.696400
30
0.000000
0
VERTEX
8
DOOR
10
10.340355
20
3.687273
30
0.000000
0
VERTEX
8
DOOR
10
10.203492
20
3.660050
30
0.000000
0
VERTEX
8
DOOR
10
10.071353
20
3.615195
30
0.000000
0
VERTEX
8
DOOR
10
9.946200
20
3.553476
30
0.000000
0
VERTEX
8
DOOR
10
9.830173
20
3.475949
30
0.000000
0
VERTEX
8
DOOR
10
9.725258
20
3.383942
30
0.000000
0
VERTEX
8
DOOR
10
9.633251
20
3.279027
30
0.000000
0
VERTEX
8
DOOR
10
9.555724
20
3.163000
30
0.000000
0
VERTEX
8
DOOR
10
9.494005
20
3.037847
30
0.000000
0
VERTEX
8
DOOR
10
9.449150
20
2.905708
30
0.000000
0
VERTEX
8
DOOR
10
9.421927
20
2.768845
30
0.000000
0
VERTEX
8
DOOR
10
9.412800
20
2.629600
30
0.000000
0
SEQEND
8
DOOR
999
URBANOS_PATH door%2Flobby-dwg%2F1%2Fleaf
0
POLYLINE
8
DOOR
66
1
70
0
10
0.000000
20
0.000000
30
0.000000
0
VERTEX
8
DOOR
10
8.097300
20
2.705800
30
0.000000
0
VERTEX
8
DOOR
10
8.097300
20
3.620200
30
0.000000
0
SEQEND
8
DOOR
999
URBANOS_PATH door%2Flobby-dwg%2F1%2Fswing
0
POLYLINE
8
DOOR
66
1
70
0
10
0.000000
20
0.000000
30
0.000000
0
VERTEX
8
DOOR
10
8.097300
20
3.620200
30
0.000000
0
VERTEX
8
DOOR
10
7.977947
20
3.612377
30
0.000000
0
VERTEX
8
DOOR
10
7.860636
20
3.589043
30
0.000000
0
VERTEX
8
DOOR
10
7.747374
20
3.550595
30
0.000000
0
VERTEX
8
DOOR
10
7.640100
20
3.497694
30
0.000000
0
VERTEX
8
DOOR
10
7.540649
20
3.431242
30
0.000000
0
VERTEX
8
DOOR
10
7.450722
20
3.352378
30
0.000000
0
VERTEX
8
DOOR
10
7.371858
20
3.262451
30
0.000000
0
VERTEX
8
DOOR
10
7.305406
20
3.163000
30
0.000000
0
VERTEX
8
DOOR
10
7.252505
20
3.055726
30
0.000000
0
VERTEX
8
DOOR
10
7.214057
20
2.942464
30
0.000000
0
VERTEX
8
DOOR
10
7.190723
20
2.825153
30
0.000000
0
VERTEX
8
DOOR
10
7.182900
20
2.705800
30
0.000000
0
SEQEND
8
DOOR
999
URBANOS_PATH door%2Flobby-corridor%2F2%2Fleaf
0
POLYLINE
8
DOOR
66
1
70
0
10
0.000000
20
0.000000
30
0.000000
0
VERTEX
8
DOOR
10
8.802500
20
4.064700
30
0.000000
0
VERTEX
8
DOOR
10
9.716900
20
4.064700
30
0.000000
0
SEQEND
8
DOOR
999
URBANOS_PATH door%2Flobby-corridor%2F2%2Fswing
0
POLYLINE
8
DOOR
66
1
70
0
10
0.000000
20
0.000000
30
0.000000
0
VERTEX
8
DOOR
10
9.716900
20
4.064700
30
0.000000
0
VERTEX
8
DOOR
10
9.709077
20
4.184053
30
0.000000
0
VERTEX
8
DOOR
10
9.685743
20
4.301364
30
0.000000
0
VERTEX
8
DOOR
10
9.647295
20
4.414626
30
0.000000
0
VERTEX
8
DOOR
10
9.594394
20
4.521900
30
0.000000
0
VERTEX
8
DOOR
10
9.527942
20
4.621351
30
0.000000
0
VERTEX
8
DOOR
10
9.449078
20
4.711278
30
0.000000
0
VERTEX
8
DOOR
10
9.359151
20
4.790142
30
0.000000
0
VERTEX
8
DOOR
10
9.259700
20
4.856594
30
0.000000
0
VERTEX
8
DOOR
10
9.152426
20
4.909495
30
0.000000
0
VERTEX
8
DOOR
10
9.039164
20
4.947943
30
0.000000
0
VERTEX
8
DOOR
10
8.921853
20
4.971277
30
0.000000
0
VERTEX
8
DOOR
10
8.802500
20
4.979100
30
0.000000
0
SEQEND
8
DOOR
999
URBANOS_PATH door%2Fdwg-study%2F3%2Fleaf
0
POLYLINE
8
DOOR
66
1
70
0
10
0.000000
20
0.000000
30
0.000000
0
VERTEX
8
DOOR
10
2.191100
20
1.257300
30
0.000000
0
VERTEX
8
DOOR
10
2.191100
20
2.019300
30
0.000000
0
SEQEND
8
DOOR
999
URBANOS_PATH door%2Fdwg-study%2F3%2Fswing
0
POLYLINE
8
DOOR
66
1
70
0
10
0.000000
20
0.000000
30
0.000000
0
VERTEX
8
DOOR
10
2.191100
20
2.019300
30
0.000000
0
VERTEX
8
DOOR
10
2.091639
20
2.012781
30
0.000000
0
VERTEX
8
DOOR
10
1.993880
20
1.993335
30
0.000000
0
VERTEX
8
DOOR
10
1.899495
20
1.961296
30
0.000000
0
VERTEX
8
DOOR
10
1.810100
20
1.917211
30
0.000000
0
VERTEX
8
DOOR
10
1.727224
20
1.861835
30
0.000000
0
VERTEX
8
DOOR
10
1.652285
20
1.796115
30
0.000000
0
VERTEX
8
DOOR
10
1.586565
20
1.721176
30
0.000000
0
VERTEX
8
DOOR
10
1.531189
20
1.638300
30
0.000000
0
VERTEX
8
DOOR
10
1.487104
20
1.548905
30
0.000000
0
VERTEX
8
DOOR
10
1.455065
20
1.454520
30
0.000000
0
VERTEX
8
DOOR
10
1.435619
20
1.356761
30
0.000000
0
VERTEX
8
DOOR
10
1.429100
20
1.257300
30
0.000000
0
SEQEND
8
DOOR
999
URBANOS_PATH door%2Fdwg-kitchen%2F4%2Fleaf
0
POLYLINE
8
DOOR
66
1
70
0
10
0.000000
20
0.000000
30
0.000000
0
VERTEX
8
DOOR
10
8.097300
20
0.673100
30
0.000000
0
VERTEX
8
DOOR
10
8.097300
20
1.587500
30
0.000000
0
SEQEND
8
DOOR
999
URBANOS_PATH door%2Fdwg-kitchen%2F4%2Fswing
0
POLYLINE
8
DOOR
66
1
70
0
10
0.000000
20
0.000000
30
0.000000
0
VERTEX
8
DOOR
10
8.097300
20
1.587500
30
0.000000
0
VERTEX
8
DOOR
10
7.977947
20
1.579677
30
0.000000
0
VERTEX
8
DOOR
10
7.860636
20
1.556343
30
0.000000
0
VERTEX
8
DOOR
10
7.747374
20
1.517895
30
0.000000
0
VERTEX
8
DOOR
10
7.640100
20
1.464994
30
0.000000
0
VERTEX
8
DOOR
10
7.540649
20
1.398542
30
0.000000
0
VERTEX
8
DOOR
10
7.450722
20
1.319678
30
0.000000
0
VERTEX
8
DOOR
10
7.371858
20
1.229751
30
0.000000
0
VERTEX
8
DOOR
10
7.305406
20
1.130300
30
0.000000
0
VERTEX
8
DOOR
10
7.252505
20
1.023026
30
0.000000
0
VERTEX
8
DOOR
10
7.214057
20
0.909764
30
0.000000
0
VERTEX
8
DOOR
10
7.190723
20
0.792453
30
0.000000
0
VERTEX
8
DOOR
10
7.182900
20
0.673100
30
0.000000
0
SEQEND
8
DOOR
999
URBANOS_PATH door%2Fdwg-corridor%2F5%2Fleaf
0
POLYLINE
8
DOOR
66
1
70
0
10
0.000000
20
0.000000
30
0.000000
0
VERTEX
8
DOOR
10
4.610800
20
4.121500
30
0.000000
0
VERTEX
8
DOOR
10
5.677600
20
4.121500
30
0.000000
0
SEQEND
8
DOOR
999
URBANOS_PATH door%2Fdwg-corridor%2F5%2Fswing
0
POLYLINE
8
DOOR
66
1
70
0
10
0.000000
20
0.000000
30
0.000000
0
VERTEX
8
DOOR
10
5.677600
20
4.121500
30
0.000000
0
VERTEX
8
DOOR
10
5.668473
20
4.260745
30
0.000000
0
VERTEX
8
DOOR
10
5.641250
20
4.397608
30
0.000000
0
VERTEX
8
DOOR
10
5.596395
20
4.529747
30
0.000000
0
VERTEX
8
DOOR
10
5.534676
20
4.654900
30
0.000000
0
VERTEX
8
DOOR
10
5.457149
20
4.770927
30
0.000000
0
VERTEX
8
DOOR
10
5.365142
20
4.875842
30
0.000000
0
VERTEX
8
DOOR
10
5.260227
20
4.967849
30
0.000000
0
VERTEX
8
DOOR
10
5.144200
20
5.045376
30
0.000000
0
VERTEX
8
DOOR
10
5.019047
20
5.107095
30
0.000000
0
VERTEX
8
DOOR
10
4.886908
20
5.151950
30
0.000000
0
VERTEX
8
DOOR
10
4.750045
20
5.179173
30
0.000000
0
VERTEX
8
DOOR
10
4.610800
20
5.188300
30
0.000000
0
SEQEND
8
DOOR
999
URBANOS_PATH door%2Fcorridor-toilet-common%2F6%2Fleaf
0
POLYLINE
8
DOOR
66
1
70
0
10
0.000000
20
0.000000
30
0.000000
0
VERTEX
8
DOOR
10
4.306000
20
5.303300
30
0.000000
0
VERTEX
8
DOOR
10
5.068000
20
5.303300
30
0.000000
0
SEQEND
8
DOOR
999
URBANOS_PATH door%2Fcorridor-toilet-common%2F6%2Fswing
0
POLYLINE
8
DOOR
66
1
70
0
10
0.000000
20
0.000000
30
0.000000
0
VERTEX
8
DOOR
10
5.068000
20
5.303300
30
0.000000
0
VERTEX
8
DOOR
10
5.061481
20
5.402761
30
0.000000
0
VERTEX
8
DOOR
10
5.042035
20
5.500520
30
0.000000
0
VERTEX
8
DOOR
10
5.009996
20
5.594905
30
0.000000
0
VERTEX
8
DOOR
10
4.965911
20
5.684300
30
0.000000
0
VERTEX
8
DOOR
10
4.910535
20
5.767176
30
0.000000
0
VERTEX
8
DOOR
10
4.844815
20
5.842115
30
0.000000
0
VERTEX
8
DOOR
10
4.769876
20
5.907835
30
0.000000
0
VERTEX
8
DOOR
10
4.687000
20
5.963211
30
0.000000
0
VERTEX
8
DOOR
10
4.597605
20
6.007296
30
0.000000
0
VERTEX
8
DOOR
10
4.503220
20
6.039335
30
0.000000
0
VERTEX
8
DOOR
10
4.405461
20
6.058781
30
0.000000
0
VERTEX
8
DOOR
10
4.306000
20
6.065300
30
0.000000
0
SEQEND
8
DOOR
999
URBANOS_PATH door%2Fcorridor-master%2F7%2Fleaf
0
POLYLINE
8
DOOR
66
1
70
0
10
0.000000
20
0.000000
30
0.000000
0
VERTEX
8
DOOR
10
2.495900
20
5.303300
30
0.000000
0
VERTEX
8
DOOR
10
3.410300
20
5.303300
30
0.000000
0
SEQEND
8
DOOR
999
URBANOS_PATH door%2Fcorridor-master%2F7%2Fswing
0
POLYLINE
8
DOOR
66
1
70
0
10
0.000000
20
0.000000
30
0.000000
0
VERTEX
8
DOOR
10
3.410300
20
5.303300
30
0.000000
0
VERTEX
8
DOOR
10
3.402477
20
5.422653
30
0.000000
0
VERTEX
8
DOOR
10
3.379143
20
5.539964
30
0.000000
0
VERTEX
8
DOOR
10
3.340695
20
5.653226
30
0.000000
0
VERTEX
8
DOOR
10
3.287794
20
5.760500
30
0.000000
0
VERTEX
8
DOOR
10
3.221342
20
5.859951
30
0.000000
0
VERTEX
8
DOOR
10
3.142478
20
5.949878
30
0.000000
0
VERTEX
8
DOOR
10
3.052551
20
6.028742
30
0.000000
0
VERTEX
8
DOOR
10
2.953100
20
6.095194
30
0.000000
0
VERTEX
8
DOOR
10
2.845826
20
6.148095
30
0.000000
0
VERTEX
8
DOOR
10
2.732564
20
6.186543
30
0.000000
0
VERTEX
8
DOOR
10
2.615253
20
6.209877
30
0.000000
0
VERTEX
8
DOOR
10
2.495900
20
6.217700
30
0.000000
0
SEQEND
8
DOOR
999
URBANOS_PATH door%2Fmaster-toilet%2F8%2Fleaf
0
POLYLINE
8
DOOR
66
1
70
0
10
0.000000
20
0.000000
30
0.000000
0
VERTEX
8
DOOR
10
3.715100
20
8.212300
30
0.000000
0
VERTEX
8
DOOR
10
3.715100
20
8.974300
30
0.000000
0
SEQEND
8
DOOR
999
URBANOS_PATH door%2Fmaster-toilet%2F8%2Fswing
0
POLYLINE
8
DOOR
66
1
70
0
10
0.000000
20
0.000000
30
0.000000
0
VERTEX
8
DOOR
10
3.715100
20
8.974300
30
0.000000
0
VERTEX
8
DOOR
10
3.615639
20
8.967781
30
0.000000
0
VERTEX
8
DOOR
10
3.517880
20
8.948335
30
0.000000
0
VERTEX
8
DOOR
10
3.423495
20
8.916296
30
0.000000
0
VERTEX
8
DOOR
10
3.334100
20
8.872211
30
0.000000
0
VERTEX
8
DOOR
10
3.251224
20
8.816835
30
0.000000
0
VERTEX
8
DOOR
10
3.176285
20
8.751115
30
0.000000
0
VERTEX
8
DOOR
10
3.110565
20
8.676176
30
0.000000
0
VERTEX
8
DOOR
10
3.055189
20
8.593300
30
0.000000
0
VERTEX
8
DOOR
10
3.011104
20
8.503905
30
0.000000
0
VERTEX
8
DOOR
10
2.979065
20
8.409520
30
0.000000
0
VERTEX
8
DOOR
10
2.959619
20
8.311761
30
0.000000
0
VERTEX
8
DOOR
10
2.953100
20
8.212300
30
0.000000
0
SEQEND
8
DOOR
999
URBANOS_PATH door%2Fcorridor-br2%2F9%2Fleaf
0
POLYLINE
8
DOOR
66
1
70
0
10
0.000000
20
0.000000
30
0.000000
0
VERTEX
8
DOOR
10
7.354700
20
5.303300
30
0.000000
0
VERTEX
8
DOOR
10
8.269100
20
5.303300
30
0.000000
0
SEQEND
8
DOOR
999
URBANOS_PATH door%2Fcorridor-br2%2F9%2Fswing
0
POLYLINE
8
DOOR
66
1
70
0
10
0.000000
20
0.000000
30
0.000000
0
VERTEX
8
DOOR
10
8.269100
20
5.303300
30
0.000000
0
VERTEX
8
DOOR
10
8.261277
20
5.422653
30
0.000000
0
VERTEX
8
DOOR
10
8.237943
20
5.539964
30
0.000000
0
VERTEX
8
DOOR
10
8.199495
20
5.653226
30
0.000000
0
VERTEX
8
DOOR
10
8.146594
20
5.760500
30
0.000000
0
VERTEX
8
DOOR
10
8.080142
20
5.859951
30
0.000000
0
VERTEX
8
DOOR
10
8.001278
20
5.949878
30
0.000000
0
VERTEX
8
DOOR
10
7.911351
20
6.028742
30
0.000000
0
VERTEX
8
DOOR
10
7.811900
20
6.095194
30
0.000000
0
VERTEX
8
DOOR
10
7.704626
20
6.148095
30
0.000000
0
VERTEX
8
DOOR
10
7.591364
20
6.186543
30
0.000000
0
VERTEX
8
DOOR
10
7.474053
20
6.209877
30
0.000000
0
VERTEX
8
DOOR
10
7.354700
20
6.217700
30
0.000000
0
SEQEND
8
DOOR
999
URBANOS_PATH door%2Fdwg-balcony%2F10%2Fleaf
0
POLYLINE
8
DOOR
66
1
70
0
10
0.000000
20
0.000000
30
0.000000
0
VERTEX
8
DOOR
10
4.229800
20
-0.115000
30
0.000000
0
VERTEX
8
DOOR
10
6.058600
20
-0.115000
30
0.000000
0
SEQEND
8
DOOR
999
URBANOS_PATH door%2Fdwg-balcony%2F10%2Fswing
0
POLYLINE
8
DOOR
66
1
70
0
10
0.000000
20
0.000000
30
0.000000
0
VERTEX
8
DOOR
10
6.058600
20
-0.115000
30
0.000000
0
VERTEX
8
DOOR
10
6.042954
20
0.123706
30
0.000000
0
VERTEX
8
DOOR
10
5.996285
20
0.358328
30
0.000000
0
VERTEX
8
DOOR
10
5.919391
20
0.584851
30
0.000000
0
VERTEX
8
DOOR
10
5.813587
20
0.799400
30
0.000000
0
VERTEX
8
DOOR
10
5.680685
20
0.998303
30
0.000000
0
VERTEX
8
DOOR
10
5.522957
20
1.178157
30
0.000000
0
VERTEX
8
DOOR
10
5.343103
20
1.335885
30
0.000000
0
VERTEX
8
DOOR
10
5.144200
20
1.468787
30
0.000000
0
VERTEX
8
DOOR
10
4.929651
20
1.574591
30
0.000000
0
VERTEX
8
DOOR
10
4.703128
20
1.651485
30
0.000000
0
VERTEX
8
DOOR
10
4.468506
20
1.698154
30
0.000000
0
VERTEX
8
DOOR
10
4.229800
20
1.713800
30
0.000000
0
SEQEND
8
DOOR
999
URBANOS_PATH door%2Fmaster-balcony%2F11%2Fleaf
0
POLYLINE
8
DOOR
66
1
70
0
10
0.000000
20
0.000000
30
0.000000
0
VERTEX
8
DOOR
10
0.914400
20
9.539800
30
0.000000
0
VERTEX
8
DOOR
10
2.743200
20
9.539800
30
0.000000
0
SEQEND
8
DOOR
999
URBANOS_PATH door%2Fmaster-balcony%2F11%2Fswing
0
POLYLINE
8
DOOR
66
1
70
0
10
0.000000
20
0.000000
30
0.000000
0
VERTEX
8
DOOR
10
2.743200
20
9.539800
30
0.000000
0
VERTEX
8
DOOR
10
2.727554
20
9.778506
30
0.000000
0
VERTEX
8
DOOR
10
2.680885
20
10.013128
30
0.000000
0
VERTEX
8
DOOR
10
2.603991
20
10.239651
30
0.000000
0
VERTEX
8
DOOR
10
2.498187
20
10.454200
30
0.000000
0
VERTEX
8
DOOR
10
2.365285
20
10.653103
30
0.000000
0
VERTEX
8
DOOR
10
2.207557
20
10.832957
30
0.000000
0
VERTEX
8
DOOR
10
2.027703
20
10.990685
30
0.000000
0
VERTEX
8
DOOR
10
1.828800
20
11.123587
30
0.000000
0
VERTEX
8
DOOR
10
1.614251
20
11.229391
30
0.000000
0
VERTEX
8
DOOR
10
1.387728
20
11.306285
30
0.000000
0
VERTEX
8
DOOR
10
1.153106
20
11.352954
30
0.000000
0
VERTEX
8
DOOR
10
0.914400
20
11.368600
30
0.000000
0
SEQEND
8
DOOR
999
URBANOS_PATH door%2Fbr2-balcony%2F12%2Fleaf
0
POLYLINE
8
DOOR
66
1
70
0
10
0.000000
20
0.000000
30
0.000000
0
VERTEX
8
DOOR
10
9.565200
20
6.199000
30
0.000000
0
VERTEX
8
DOOR
10
9.565200
20
8.027800
30
0.000000
0
SEQEND
8
DOOR
999
URBANOS_PATH door%2Fbr2-balcony%2F12%2Fswing
0
POLYLINE
8
DOOR
66
1
70
0
10
0.000000
20
0.000000
30
0.000000
0
VERTEX
8
DOOR
10
9.565200
20
8.027800
30
0.000000
0
VERTEX
8
DOOR
10
9.326494
20
8.012154
30
0.000000
0
VERTEX
8
DOOR
10
9.091872
20
7.965485
30
0.000000
0
VERTEX
8
DOOR
10
8.865349
20
7.888591
30
0.000000
0
VERTEX
8
DOOR
10
8.650800
20
7.782787
30
0.000000
0
VERTEX
8
DOOR
10
8.451897
20
7.649885
30
0.000000
0
VERTEX
8
DOOR
10
8.272043
20
7.492157
30
0.000000
0
VERTEX
8
DOOR
10
8.114315
20
7.312303
30
0.000000
0
VERTEX
8
DOOR
10
7.981413
20
7.113400
30
0.000000
0
VERTEX
8
DOOR
10
7.875609
20
6.898851
30
0.000000
0
VERTEX
8
DOOR
10
7.798715
20
6.672328
30
0.000000
0
VERTEX
8
DOOR
10
7.752046
20
6.437706
30
0.000000
0
VERTEX
8
DOOR
10
7.736400
20
6.199000
30
0.000000
0
SEQEND
8
DOOR
999
URBANOS_PATH window%2Fwin-study-s%2Fframe
0
POLYLINE
8
WINDOW
66
1
70
1
10
0.000000
20
0.000000
30
0.000000
0
VERTEX
8
WINDOW
10
0.457200
20
0.000000
30
0.000000
0
VERTEX
8
WINDOW
10
0.457200
20
-0.230000
30
0.000000
0
VERTEX
8
WINDOW
10
1.676400
20
-0.230000
30
0.000000
0
VERTEX
8
WINDOW
10
1.676400
20
0.000000
30
0.000000
0
SEQEND
8
WINDOW
999
URBANOS_PATH window%2Fwin-study-s%2Fmid
0
POLYLINE
8
WINDOW
66
1
70
0
10
0.000000
20
0.000000
30
0.000000
0
VERTEX
8
WINDOW
10
0.457200
20
-0.115000
30
0.000000
0
VERTEX
8
WINDOW
10
1.676400
20
-0.115000
30
0.000000
0
SEQEND
8
WINDOW
999
URBANOS_PATH window%2Fwin-kitchen-s%2Fframe
0
POLYLINE
8
WINDOW
66
1
70
1
10
0.000000
20
0.000000
30
0.000000
0
VERTEX
8
WINDOW
10
9.221600
20
0.000000
30
0.000000
0
VERTEX
8
WINDOW
10
9.221600
20
-0.230000
30
0.000000
0
VERTEX
8
WINDOW
10
10.440800
20
-0.230000
30
0.000000
0
VERTEX
8
WINDOW
10
10.440800
20
0.000000
30
0.000000
0
SEQEND
8
WINDOW
999
URBANOS_PATH window%2Fwin-kitchen-s%2Fmid
0
POLYLINE
8
WINDOW
66
1
70
0
10
0.000000
20
0.000000
30
0.000000
0
VERTEX
8
WINDOW
10
9.221600
20
-0.115000
30
0.000000
0
VERTEX
8
WINDOW
10
10.440800
20
-0.115000
30
0.000000
0
SEQEND
8
WINDOW
999
URBANOS_PATH window%2Fwin-kitchen-e%2Fframe
0
POLYLINE
8
WINDOW
66
1
70
1
10
0.000000
20
0.000000
30
0.000000
0
VERTEX
8
WINDOW
10
11.507600
20
0.673100
30
0.000000
0
VERTEX
8
WINDOW
10
11.737600
20
0.673100
30
0.000000
0
VERTEX
8
WINDOW
10
11.737600
20
1.587500
30
0.000000
0
VERTEX
8
WINDOW
10
11.507600
20
1.587500
30
0.000000
0
SEQEND
8
WINDOW
999
URBANOS_PATH window%2Fwin-kitchen-e%2Fmid
0
POLYLINE
8
WINDOW
66
1
70
0
10
0.000000
20
0.000000
30
0.000000
0
VERTEX
8
WINDOW
10
11.622600
20
0.673100
30
0.000000
0
VERTEX
8
WINDOW
10
11.622600
20
1.587500
30
0.000000
0
SEQEND
8
WINDOW
999
URBANOS_PATH window%2Fwin-master-w%2Fframe
0
POLYLINE
8
WINDOW
66
1
70
1
10
0.000000
20
0.000000
30
0.000000
0
VERTEX
8
WINDOW
10
0.000000
20
6.630800
30
0.000000
0
VERTEX
8
WINDOW
10
-0.230000
20
6.630800
30
0.000000
0
VERTEX
8
WINDOW
10
-0.230000
20
8.154800
30
0.000000
0
VERTEX
8
WINDOW
10
0.000000
20
8.154800
30
0.000000
0
SEQEND
8
WINDOW
999
URBANOS_PATH window%2Fwin-master-w%2Fmid
0
POLYLINE
8
WINDOW
66
1
70
0
10
0.000000
20
0.000000
30
0.000000
0
VERTEX
8
WINDOW
10
-0.115000
20
6.630800
30
0.000000
0
VERTEX
8
WINDOW
10
-0.115000
20
8.154800
30
0.000000
0
SEQEND
8
WINDOW
999
URBANOS_PATH window%2Fwin-br2-n%2Fframe
0
POLYLINE
8
WINDOW
66
1
70
1
10
0.000000
20
0.000000
30
0.000000
0
VERTEX
8
WINDOW
10
7.049900
20
8.866000
30
0.000000
0
VERTEX
8
WINDOW
10
7.049900
20
9.096000
30
0.000000
0
VERTEX
8
WINDOW
10
8.573900
20
9.096000
30
0.000000
0
VERTEX
8
WINDOW
10
8.573900
20
8.866000
30
0.000000
0
SEQEND
8
WINDOW
999
URBANOS_PATH window%2Fwin-br2-n%2Fmid
0
POLYLINE
8
WINDOW
66
1
70
0
10
0.000000
20
0.000000
30
0.000000
0
VERTEX
8
WINDOW
10
7.049900
20
8.981000
30
0.000000
0
VERTEX
8
WINDOW
10
8.573900
20
8.981000
30
0.000000
0
SEQEND
8
WINDOW
999
URBANOS_PATH window%2Fwin-toiletm-n%2Fframe
0
POLYLINE
8
WINDOW
66
1
70
1
10
0.000000
20
0.000000
30
0.000000
0
VERTEX
8
WINDOW
10
4.458400
20
10.098600
30
0.000000
0
VERTEX
8
WINDOW
10
4.458400
20
10.328600
30
0.000000
0
VERTEX
8
WINDOW
10
5.068000
20
10.328600
30
0.000000
0
VERTEX
8
WINDOW
10
5.068000
20
10.098600
30
0.000000
0
SEQEND
8
WINDOW
999
URBANOS_PATH window%2Fwin-toiletm-n%2Fmid
0
POLYLINE
8
WINDOW
66
1
70
0
10
0.000000
20
0.000000
30
0.000000
0
VERTEX
8
WINDOW
10
4.458400
20
10.213600
30
0.000000
0
VERTEX
8
WINDOW
10
5.068000
20
10.213600
30
0.000000
0
SEQEND
8
WINDOW
999
URBANOS_PATH dim%2Foverall-width%2Fline
0
POLYLINE
8
DIMENSION
66
1
70
0
10
0.000000
20
0.000000
30
0.000000
0
VERTEX
8
DIMENSION
10
-0.230000
20
-3.158800
30
0.000000
0
VERTEX
8
DIMENSION
10
11.737600
20
-3.158800
30
0.000000
0
SEQEND
8
DIMENSION
999
URBANOS_PATH dim%2Foverall-width%2Ftick%2F0
0
POLYLINE
8
DIMENSION
66
1
70
0
10
0.000000
20
0.000000
30
0.000000
0
VERTEX
8
DIMENSION
10
-0.305000
20
-3.233800
30
0.000000
0
VERTEX
8
DIMENSION
10
-0.155000
20
-3.083800
30
0.000000
0
SEQEND
8
DIMENSION
999
URBANOS_PATH dim%2Foverall-width%2Ftick%2F1
0
POLYLINE
8
DIMENSION
66
1
70
0
10
0.000000
20
0.000000
30
0.000000
0
VERTEX
8
DIMENSION
10
11.662600
20
-3.233800
30
0.000000
0
VERTEX
8
DIMENSION
10
11.812600
20
-3.083800
30
0.000000
0
SEQEND
8
DIMENSION
999
URBANOS_PATH dim%2Foverall-height%2Fline
0
POLYLINE
8
DIMENSION
66
1
70
0
10
0.000000
20
0.000000
30
0.000000
0
VERTEX
8
DIMENSION
10
-1.330000
20
-2.058800
30
0.000000
0
VERTEX
8
DIMENSION
10
-1.330000
20
11.483600
30
0.000000
0
SEQEND
8
DIMENSION
999
URBANOS_PATH dim%2Foverall-height%2Ftick%2F0
0
POLYLINE
8
DIMENSION
66
1
70
0
10
0.000000
20
0.000000
30
0.000000
0
VERTEX
8
DIMENSION
10
-1.405000
20
-2.133800
30
0.000000
0
VERTEX
8
DIMENSION
10
-1.255000
20
-1.983800
30
0.000000
0
SEQEND
8
DIMENSION
999
URBANOS_PATH dim%2Foverall-height%2Ftick%2F1
0
POLYLINE
8
DIMENSION
66
1
70
0
10
0.000000
20
0.000000
30
0.000000
0
VERTEX
8
DIMENSION
10
-1.405000
20
11.408600
30
0.000000
0
VERTEX
8
DIMENSION
10
-1.255000
20
11.558600
30
0.000000
0
SEQEND
8
DIMENSION
999
URBANOS_PATH north%2Farrow
0
POLYLINE
8
NORTH
66
1
70
1
10
0.000000
20
0.000000
30
0.000000
0
VERTEX
8
NORTH
10
12.357600
20
10.533600
30
0.000000
0
VERTEX
8
NORTH
10
12.637600
20
11.283600
30
0.000000
0
VERTEX
8
NORTH
10
12.917600
20
10.533600
30
0.000000
0
VERTEX
8
NORTH
10
12.637600
20
10.783600
30
0.000000
0
SEQEND
8
NORTH
999
URBANOS_TEXT label%2Fstudy
0
TEXT
8
ROOM-TEXT
10
1.066800
20
1.798300
30
0.000000
40
0.140000
1
STUDY
50
0.000000
7
STANDARD
72
1
73
2
11
1.066800
21
1.798300
31
0.000000
999
URBANOS_TEXT size%2Fstudy
0
TEXT
8
ROOM-TEXT
10
1.066800
20
1.378300
30
0.000000
40
0.110000
1
7'-0" x 10'-9"
50
0.000000
7
STANDARD
72
1
73
2
11
1.066800
21
1.378300
31
0.000000
999
URBANOS_TEXT label%2Fdwg-dining
0
TEXT
8
ROOM-TEXT
10
5.144200
20
2.192000
30
0.000000
40
0.140000
1
DRAWING / DINING
50
0.000000
7
STANDARD
72
1
73
2
11
5.144200
21
2.192000
31
0.000000
999
URBANOS_TEXT size%2Fdwg-dining
0
TEXT
8
ROOM-TEXT
10
5.144200
20
1.772000
30
0.000000
40
0.110000
1
19'-0" x 13'-4"
50
0.000000
7
STANDARD
72
1
73
2
11
5.144200
21
1.772000
31
0.000000
999
URBANOS_TEXT label%2Fkitchen
0
TEXT
8
ROOM-TEXT
10
9.831200
20
1.290300
30
0.000000
40
0.140000
1
KITCHEN
50
0.000000
7
STANDARD
72
1
73
2
11
9.831200
21
1.290300
31
0.000000
999
URBANOS_TEXT size%2Fkitchen
0
TEXT
8
ROOM-TEXT
10
9.831200
20
0.870300
30
0.000000
40
0.110000
1
11'-0" x 7'-5"
50
0.000000
7
STANDARD
72
1
73
2
11
9.831200
21
0.870300
31
0.000000
999
URBANOS_TEXT label%2Flobby
0
TEXT
8
ROOM-TEXT
10
9.259700
20
3.323000
30
0.000000
40
0.100000
1
ENT. LOBBY
50
0.000000
7
STANDARD
72
1
73
2
11
9.259700
21
3.323000
31
0.000000
999
URBANOS_TEXT size%2Flobby
0
TEXT
8
ROOM-TEXT
10
9.259700
20
2.903000
30
0.000000
40
0.110000
1
7'-3" x 5'-2"
50
0.000000
7
STANDARD
72
1
73
2
11
9.259700
21
2.903000
31
0.000000
999
URBANOS_TEXT label%2Fmaster-bedroom
0
TEXT
8
ROOM-TEXT
10
1.828800
20
7.552800
30
0.000000
40
0.140000
1
MASTER BEDROOM
50
0.000000
7
STANDARD
72
1
73
2
11
1.828800
21
7.552800
31
0.000000
999
URBANOS_TEXT size%2Fmaster-bedroom
0
TEXT
8
ROOM-TEXT
10
1.828800
20
7.132800
30
0.000000
40
0.110000
1
12'-0" x 13'-4"
50
0.000000
7
STANDARD
72
1
73
2
11
1.828800
21
7.132800
31
0.000000
999
URBANOS_TEXT label%2Ftoilet-master
0
TEXT
8
ROOM-TEXT
10
4.763200
20
9.090200
30
0.000000
40
0.140000
1
TOILET
50
0.000000
7
STANDARD
72
1
73
2
11
4.763200
21
9.090200
31
0.000000
999
URBANOS_TEXT size%2Ftoilet-master
0
TEXT
8
ROOM-TEXT
10
4.763200
20
8.670200
30
0.000000
40
0.110000
1
6'-6" x 7'-8"
50
0.000000
7
STANDARD
72
1
73
2
11
4.763200
21
8.670200
31
0.000000
999
URBANOS_TEXT label%2Ftoilet-common
0
TEXT
8
ROOM-TEXT
10
4.687000
20
6.663800
30
0.000000
40
0.140000
1
TOILET
50
0.000000
7
STANDARD
72
1
73
2
11
4.687000
21
6.663800
31
0.000000
999
URBANOS_TEXT size%2Ftoilet-common
0
TEXT
8
ROOM-TEXT
10
4.687000
20
6.243800
30
0.000000
40
0.110000
1
7'-6" x 6'-0"
50
0.000000
7
STANDARD
72
1
73
2
11
4.687000
21
6.243800
31
0.000000
999
URBANOS_TEXT label%2Fbedroom-2
0
TEXT
8
ROOM-TEXT
10
7.811900
20
7.273400
30
0.000000
40
0.140000
1
BEDROOM 2
50
0.000000
7
STANDARD
72
1
73
2
11
7.811900
21
7.273400
31
0.000000
999
URBANOS_TEXT size%2Fbedroom-2
0
TEXT
8
ROOM-TEXT
10
7.811900
20
6.853400
30
0.000000
40
0.110000
1
10'-9" x 11'-6"
50
0.000000
7
STANDARD
72
1
73
2
11
7.811900
21
6.853400
31
0.000000
999
URBANOS_TEXT label%2Fcorridor
0
TEXT
8
ROOM-TEXT
10
6.306600
20
4.712400
30
0.000000
40
0.100000
1
CIRCULATION
50
0.000000
7
STANDARD
72
1
73
2
11
6.306600
21
4.712400
31
0.000000
999
URBANOS_TEXT label%2Fshaft
0
TEXT
8
ROOM-TEXT
10
5.906200
20
7.729700
30
0.000000
40
0.100000
1
SHAFT
50
90.000000
7
STANDARD
72
1
73
2
11
5.906200
21
7.729700
31
0.000000
999
URBANOS_TEXT label%2Fbalcony-living
0
TEXT
8
ROOM-TEXT
10
5.144200
20
-1.144400
30
0.000000
40
0.100000
1
6'-0" WIDE BALCONY
50
0.000000
7
STANDARD
72
1
73
2
11
5.144200
21
-1.144400
31
0.000000
999
URBANOS_TEXT label%2Fbalcony-master
0
TEXT
8
ROOM-TEXT
10
1.828800
20
10.569200
30
0.000000
40
0.100000
1
6'-0" WIDE BALCONY
50
0.000000
7
STANDARD
72
1
73
2
11
1.828800
21
10.569200
31
0.000000
999
URBANOS_TEXT label%2Fbalcony-br2
0
TEXT
8
ROOM-TEXT
10
10.594600
20
7.113400
30
0.000000
40
0.100000
1
6'-0" WIDE BALCONY
50
90.000000
7
STANDARD
72
1
73
2
11
10.594600
21
7.113400
31
0.000000
999
URBANOS_TEXT dim%2Foverall-width%2Ftext
0
TEXT
8
DIMENSION
10
5.753800
20
-3.038800
30
0.000000
40
0.125000
1
OVERALL 11.968 m
50
0.000000
7
STANDARD
72
1
73
2
11
5.753800
21
-3.038800
31
0.000000
999
URBANOS_TEXT dim%2Foverall-height%2Ftext
0
TEXT
8
DIMENSION
10
-1.450000
20
4.712400
30
0.000000
40
0.125000
1
OVERALL 13.542 m
50
90.000000
7
STANDARD
72
1
73
2
11
-1.450000
21
4.712400
31
0.000000
999
URBANOS_TEXT north%2Flabel
0
TEXT
8
NORTH
10
12.637600
20
11.463600
30
0.000000
40
0.150000
1
N (ASSUMED)
50
0.000000
7
STANDARD
72
1
73
2
11
12.637600
21
11.463600
31
0.000000
0
ENDSEC
0
EOF
