0
SECTION
2
HEADER
9
$ACADVER
1
AC1009
9
$INSUNITS
70
6
9
$MEASUREMENT
70
1
9
$LUNITS
70
2
9
$LUPREC
70
6
9
$EXTMIN
10
-30.500000
20
-36.000000
30
0.000000
9
$EXTMAX
10
239.000000
20
194.000000
30
0.000000
9
$LIMMIN
10
-30.500000
20
-36.000000
9
$LIMMAX
10
239.000000
20
194.000000
0
ENDSEC
0
SECTION
2
TABLES
0
TABLE
2
LTYPE
70
2
0
LTYPE
2
CONTINUOUS
70
0
3
Solid line
72
65
73
0
40
0.000000
0
LTYPE
2
DASHED
70
0
3
__ __ __
72
65
73
2
40
3.600000
49
2.250000
49
-1.350000
0
ENDTAB
0
TABLE
2
LAYER
70
14
0
LAYER
2
SITE
70
0
62
7
6
CONTINUOUS
0
LAYER
2
ENVELOPE
70
0
62
1
6
DASHED
0
LAYER
2
ROAD-PRIMARY
70
0
62
8
6
CONTINUOUS
0
LAYER
2
ROAD-SECONDARY
70
0
62
9
6
CONTINUOUS
0
LAYER
2
PLOT
70
0
62
30
6
CONTINUOUS
0
LAYER
2
GREEN
70
0
62
3
6
CONTINUOUS
0
LAYER
2
AMENITY
70
0
62
40
6
CONTINUOUS
0
LAYER
2
CLUB
70
0
62
32
6
CONTINUOUS
0
LAYER
2
POOL
70
0
62
5
6
CONTINUOUS
0
LAYER
2
GATE
70
0
62
6
6
CONTINUOUS
0
LAYER
2
DIMENSION
70
0
62
2
6
CONTINUOUS
0
LAYER
2
TEXT
70
0
62
7
6
CONTINUOUS
0
LAYER
2
ANNOTATION
70
0
62
7
6
CONTINUOUS
0
LAYER
2
WATERMARK
70
0
62
8
6
CONTINUOUS
0
ENDTAB
0
TABLE
2
STYLE
70
1
0
STYLE
2
STANDARD
70
0
40
0.000000
41
1.000000
50
0.000000
71
0
42
2.500000
3
txt
4

0
ENDTAB
0
ENDSEC
0
SECTION
2
ENTITIES
999
URBANOS_COORDINATE_UNIT metre
999
URBANOS_DECLARED_SCALE 1:750.000000
999
URBANOS_CLASSIFICATION demo-illustrative
999
URBANOS_STATUS Research Draft - Not for Construction - DEMO
999
URBANOS_FIXTURE_DIGEST b7a5c46d9e58a3dd5758556734e0899eba970296514be7e4ffbe7d079f82e2de
999
URBANOS_RULEBOOK_DIGEST fd6c579f1d7fb32b244e192d3021f1eb608804f93a898418b6037c69a36e203f
999
URBANOS_GEOMETRY_DIGEST 1182bdecd34e9d8592db3089f4ad9862c4a9d60ba8d716e52e4c081bc3ae0973
999
URBANOS_PATH f.site-boundary
0
POLYLINE
8
SITE
66
1
70
1
10
0.000000
20
0.000000
30
0.000000
0
VERTEX
8
SITE
10
0.000000
20
0.000000
30
0.000000
0
VERTEX
8
SITE
10
225.000000
20
0.000000
30
0.000000
0
VERTEX
8
SITE
10
225.000000
20
180.000000
30
0.000000
0
VERTEX
8
SITE
10
0.000000
20
180.000000
30
0.000000
0
SEQEND
8
SITE
999
URBANOS_PATH f.envelope
0
POLYLINE
8
ENVELOPE
66
1
70
1
10
0.000000
20
0.000000
30
0.000000
0
VERTEX
8
ENVELOPE
10
9.000000
20
12.000000
30
0.000000
0
VERTEX
8
ENVELOPE
10
216.000000
20
12.000000
30
0.000000
0
VERTEX
8
ENVELOPE
10
216.000000
20
171.000000
30
0.000000
0
VERTEX
8
ENVELOPE
10
9.000000
20
171.000000
30
0.000000
0
SEQEND
8
ENVELOPE
999
URBANOS_PATH f.road-primary-spine
0
POLYLINE
8
ROAD-PRIMARY
66
1
70
1
10
0.000000
20
0.000000
30
0.000000
0
VERTEX
8
ROAD-PRIMARY
10
106.500000
20
0.000000
30
0.000000
0
VERTEX
8
ROAD-PRIMARY
10
118.500000
20
0.000000
30
0.000000
0
VERTEX
8
ROAD-PRIMARY
10
118.500000
20
171.000000
30
0.000000
0
VERTEX
8
ROAD-PRIMARY
10
106.500000
20
171.000000
30
0.000000
0
SEQEND
8
ROAD-PRIMARY
999
URBANOS_PATH f.gate-entry
0
POLYLINE
8
GATE
66
1
70
1
10
0.000000
20
0.000000
30
0.000000
0
VERTEX
8
GATE
10
106.500000
20
0.000000
30
0.000000
0
VERTEX
8
GATE
10
118.500000
20
0.000000
30
0.000000
0
VERTEX
8
GATE
10
118.500000
20
3.000000
30
0.000000
0
VERTEX
8
GATE
10
106.500000
20
3.000000
30
0.000000
0
SEQEND
8
GATE
999
URBANOS_PATH f.road-secondary-w-0
0
POLYLINE
8
ROAD-SECONDARY
66
1
70
1
10
0.000000
20
0.000000
30
0.000000
0
VERTEX
8
ROAD-SECONDARY
10
9.000000
20
58.200000
30
0.000000
0
VERTEX
8
ROAD-SECONDARY
10
106.500000
20
58.200000
30
0.000000
0
VERTEX
8
ROAD-SECONDARY
10
106.500000
20
67.200000
30
0.000000
0
VERTEX
8
ROAD-SECONDARY
10
9.000000
20
67.200000
30
0.000000
0
SEQEND
8
ROAD-SECONDARY
999
URBANOS_PATH f.road-secondary-w-1
0
POLYLINE
8
ROAD-SECONDARY
66
1
70
1
10
0.000000
20
0.000000
30
0.000000
0
VERTEX
8
ROAD-SECONDARY
10
9.000000
20
97.200000
30
0.000000
0
VERTEX
8
ROAD-SECONDARY
10
106.500000
20
97.200000
30
0.000000
0
VERTEX
8
ROAD-SECONDARY
10
106.500000
20
106.200000
30
0.000000
0
VERTEX
8
ROAD-SECONDARY
10
9.000000
20
106.200000
30
0.000000
0
SEQEND
8
ROAD-SECONDARY
999
URBANOS_PATH f.road-secondary-w-2
0
POLYLINE
8
ROAD-SECONDARY
66
1
70
1
10
0.000000
20
0.000000
30
0.000000
0
VERTEX
8
ROAD-SECONDARY
10
9.000000
20
136.200000
30
0.000000
0
VERTEX
8
ROAD-SECONDARY
10
106.500000
20
136.200000
30
0.000000
0
VERTEX
8
ROAD-SECONDARY
10
106.500000
20
145.200000
30
0.000000
0
VERTEX
8
ROAD-SECONDARY
10
9.000000
20
145.200000
30
0.000000
0
SEQEND
8
ROAD-SECONDARY
999
URBANOS_PATH f.road-secondary-e-0
0
POLYLINE
8
ROAD-SECONDARY
66
1
70
1
10
0.000000
20
0.000000
30
0.000000
0
VERTEX
8
ROAD-SECONDARY
10
118.500000
20
103.200000
30
0.000000
0
VERTEX
8
ROAD-SECONDARY
10
216.000000
20
103.200000
30
0.000000
0
VERTEX
8
ROAD-SECONDARY
10
216.000000
20
112.200000
30
0.000000
0
VERTEX
8
ROAD-SECONDARY
10
118.500000
20
112.200000
30
0.000000
0
SEQEND
8
ROAD-SECONDARY
999
URBANOS_PATH f.road-secondary-e-1
0
POLYLINE
8
ROAD-SECONDARY
66
1
70
1
10
0.000000
20
0.000000
30
0.000000
0
VERTEX
8
ROAD-SECONDARY
10
118.500000
20
142.200000
30
0.000000
0
VERTEX
8
ROAD-SECONDARY
10
216.000000
20
142.200000
30
0.000000
0
VERTEX
8
ROAD-SECONDARY
10
216.000000
20
151.200000
30
0.000000
0
VERTEX
8
ROAD-SECONDARY
10
118.500000
20
151.200000
30
0.000000
0
SEQEND
8
ROAD-SECONDARY
999
URBANOS_PATH f.green-west
0
POLYLINE
8
GREEN
66
1
70
1
10
0.000000
20
0.000000
30
0.000000
0
VERTEX
8
GREEN
10
9.000000
20
12.000000
30
0.000000
0
VERTEX
8
GREEN
10
106.500000
20
12.000000
30
0.000000
0
VERTEX
8
GREEN
10
106.500000
20
43.200000
30
0.000000
0
VERTEX
8
GREEN
10
9.000000
20
43.200000
30
0.000000
0
SEQEND
8
GREEN
999
URBANOS_PATH f.green-east
0
POLYLINE
8
GREEN
66
1
70
1
10
0.000000
20
0.000000
30
0.000000
0
VERTEX
8
GREEN
10
118.500000
20
12.000000
30
0.000000
0
VERTEX
8
GREEN
10
216.000000
20
12.000000
30
0.000000
0
VERTEX
8
GREEN
10
216.000000
20
43.200000
30
0.000000
0
VERTEX
8
GREEN
10
118.500000
20
43.200000
30
0.000000
0
SEQEND
8
GREEN
999
URBANOS_PATH f.amenity-parcel
0
POLYLINE
8
AMENITY
66
1
70
1
10
0.000000
20
0.000000
30
0.000000
0
VERTEX
8
AMENITY
10
118.500000
20
43.200000
30
0.000000
0
VERTEX
8
AMENITY
10
163.500000
20
43.200000
30
0.000000
0
VERTEX
8
AMENITY
10
163.500000
20
88.200000
30
0.000000
0
VERTEX
8
AMENITY
10
118.500000
20
88.200000
30
0.000000
0
SEQEND
8
AMENITY
999
URBANOS_PATH f.club-house
0
POLYLINE
8
CLUB
66
1
70
1
10
0.000000
20
0.000000
30
0.000000
0
VERTEX
8
CLUB
10
124.500000
20
50.700000
30
0.000000
0
VERTEX
8
CLUB
10
136.500000
20
50.700000
30
0.000000
0
VERTEX
8
CLUB
10
136.500000
20
65.700000
30
0.000000
0
VERTEX
8
CLUB
10
124.500000
20
65.700000
30
0.000000
0
SEQEND
8
CLUB
999
URBANOS_PATH f.pool
0
POLYLINE
8
POOL
66
1
70
1
10
0.000000
20
0.000000
30
0.000000
0
VERTEX
8
POOL
10
139.500000
20
50.700000
30
0.000000
0
VERTEX
8
POOL
10
148.500000
20
50.700000
30
0.000000
0
VERTEX
8
POOL
10
148.500000
20
59.700000
30
0.000000
0
VERTEX
8
POOL
10
139.500000
20
59.700000
30
0.000000
0
SEQEND
8
POOL
999
URBANOS_PATH f.plot-w-00-00
0
POLYLINE
8
PLOT
66
1
70
1
10
0.000000
20
0.000000
30
0.000000
0
VERTEX
8
PLOT
10
9.000000
20
43.200000
30
0.000000
0
VERTEX
8
PLOT
10
15.000000
20
43.200000
30
0.000000
0
VERTEX
8
PLOT
10
15.000000
20
58.200000
30
0.000000
0
VERTEX
8
PLOT
10
9.000000
20
58.200000
30
0.000000
0
SEQEND
8
PLOT
999
URBANOS_PATH f.plot-w-00-01
0
POLYLINE
8
PLOT
66
1
70
1
10
0.000000
20
0.000000
30
0.000000
0
VERTEX
8
PLOT
10
15.000000
20
43.200000
30
0.000000
0
VERTEX
8
PLOT
10
21.000000
20
43.200000
30
0.000000
0
VERTEX
8
PLOT
10
21.000000
20
58.200000
30
0.000000
0
VERTEX
8
PLOT
10
15.000000
20
58.200000
30
0.000000
0
SEQEND
8
PLOT
999
URBANOS_PATH f.plot-w-00-02
0
POLYLINE
8
PLOT
66
1
70
1
10
0.000000
20
0.000000
30
0.000000
0
VERTEX
8
PLOT
10
21.000000
20
43.200000
30
0.000000
0
VERTEX
8
PLOT
10
27.000000
20
43.200000
30
0.000000
0
VERTEX
8
PLOT
10
27.000000
20
58.200000
30
0.000000
0
VERTEX
8
PLOT
10
21.000000
20
58.200000
30
0.000000
0
SEQEND
8
PLOT
999
URBANOS_PATH f.plot-w-00-03
0
POLYLINE
8
PLOT
66
1
70
1
10
0.000000
20
0.000000
30
0.000000
0
VERTEX
8
PLOT
10
27.000000
20
43.200000
30
0.000000
0
VERTEX
8
PLOT
10
33.000000
20
43.200000
30
0.000000
0
VERTEX
8
PLOT
10
33.000000
20
58.200000
30
0.000000
0
VERTEX
8
PLOT
10
27.000000
20
58.200000
30
0.000000
0
SEQEND
8
PLOT
999
URBANOS_PATH f.plot-w-00-04
0
POLYLINE
8
PLOT
66
1
70
1
10
0.000000
20
0.000000
30
0.000000
0
VERTEX
8
PLOT
10
33.000000
20
43.200000
30
0.000000
0
VERTEX
8
PLOT
10
39.000000
20
43.200000
30
0.000000
0
VERTEX
8
PLOT
10
39.000000
20
58.200000
30
0.000000
0
VERTEX
8
PLOT
10
33.000000
20
58.200000
30
0.000000
0
SEQEND
8
PLOT
999
URBANOS_PATH f.plot-w-00-05
0
POLYLINE
8
PLOT
66
1
70
1
10
0.000000
20
0.000000
30
0.000000
0
VERTEX
8
PLOT
10
39.000000
20
43.200000
30
0.000000
0
VERTEX
8
PLOT
10
45.000000
20
43.200000
30
0.000000
0
VERTEX
8
PLOT
10
45.000000
20
58.200000
30
0.000000
0
VERTEX
8
PLOT
10
39.000000
20
58.200000
30
0.000000
0
SEQEND
8
PLOT
999
URBANOS_PATH f.plot-w-00-06
0
POLYLINE
8
PLOT
66
1
70
1
10
0.000000
20
0.000000
30
0.000000
0
VERTEX
8
PLOT
10
45.000000
20
43.200000
30
0.000000
0
VERTEX
8
PLOT
10
51.000000
20
43.200000
30
0.000000
0
VERTEX
8
PLOT
10
51.000000
20
58.200000
30
0.000000
0
VERTEX
8
PLOT
10
45.000000
20
58.200000
30
0.000000
0
SEQEND
8
PLOT
999
URBANOS_PATH f.plot-w-00-07
0
POLYLINE
8
PLOT
66
1
70
1
10
0.000000
20
0.000000
30
0.000000
0
VERTEX
8
PLOT
10
51.000000
20
43.200000
30
0.000000
0
VERTEX
8
PLOT
10
57.000000
20
43.200000
30
0.000000
0
VERTEX
8
PLOT
10
57.000000
20
58.200000
30
0.000000
0
VERTEX
8
PLOT
10
51.000000
20
58.200000
30
0.000000
0
SEQEND
8
PLOT
999
URBANOS_PATH f.plot-w-00-08
0
POLYLINE
8
PLOT
66
1
70
1
10
0.000000
20
0.000000
30
0.000000
0
VERTEX
8
PLOT
10
57.000000
20
43.200000
30
0.000000
0
VERTEX
8
PLOT
10
63.000000
20
43.200000
30
0.000000
0
VERTEX
8
PLOT
10
63.000000
20
58.200000
30
0.000000
0
VERTEX
8
PLOT
10
57.000000
20
58.200000
30
0.000000
0
SEQEND
8
PLOT
999
URBANOS_PATH f.plot-w-00-09
0
POLYLINE
8
PLOT
66
1
70
1
10
0.000000
20
0.000000
30
0.000000
0
VERTEX
8
PLOT
10
63.000000
20
43.200000
30
0.000000
0
VERTEX
8
PLOT
10
69.000000
20
43.200000
30
0.000000
0
VERTEX
8
PLOT
10
69.000000
20
58.200000
30
0.000000
0
VERTEX
8
PLOT
10
63.000000
20
58.200000
30
0.000000
0
SEQEND
8
PLOT
999
URBANOS_PATH f.plot-w-00-10
0
POLYLINE
8
PLOT
66
1
70
1
10
0.000000
20
0.000000
30
0.000000
0
VERTEX
8
PLOT
10
69.000000
20
43.200000
30
0.000000
0
VERTEX
8
PLOT
10
75.000000
20
43.200000
30
0.000000
0
VERTEX
8
PLOT
10
75.000000
20
58.200000
30
0.000000
0
VERTEX
8
PLOT
10
69.000000
20
58.200000
30
0.000000
0
SEQEND
8
PLOT
999
URBANOS_PATH f.plot-w-00-11
0
POLYLINE
8
PLOT
66
1
70
1
10
0.000000
20
0.000000
30
0.000000
0
VERTEX
8
PLOT
10
75.000000
20
43.200000
30
0.000000
0
VERTEX
8
PLOT
10
81.000000
20
43.200000
30
0.000000
0
VERTEX
8
PLOT
10
81.000000
20
58.200000
30
0.000000
0
VERTEX
8
PLOT
10
75.000000
20
58.200000
30
0.000000
0
SEQEND
8
PLOT
999
URBANOS_PATH f.plot-w-00-12
0
POLYLINE
8
PLOT
66
1
70
1
10
0.000000
20
0.000000
30
0.000000
0
VERTEX
8
PLOT
10
90.000000
20
43.200000
30
0.000000
0
VERTEX
8
PLOT
10
96.000000
20
43.200000
30
0.000000
0
VERTEX
8
PLOT
10
96.000000
20
58.200000
30
0.000000
0
VERTEX
8
PLOT
10
90.000000
20
58.200000
30
0.000000
0
SEQEND
8
PLOT
999
URBANOS_PATH f.plot-w-00-13
0
POLYLINE
8
PLOT
66
1
70
1
10
0.000000
20
0.000000
30
0.000000
0
VERTEX
8
PLOT
10
96.000000
20
43.200000
30
0.000000
0
VERTEX
8
PLOT
10
102.000000
20
43.200000
30
0.000000
0
VERTEX
8
PLOT
10
102.000000
20
58.200000
30
0.000000
0
VERTEX
8
PLOT
10
96.000000
20
58.200000
30
0.000000
0
SEQEND
8
PLOT
999
URBANOS_PATH f.plot-w-01-00
0
POLYLINE
8
PLOT
66
1
70
1
10
0.000000
20
0.000000
30
0.000000
0
VERTEX
8
PLOT
10
9.000000
20
67.200000
30
0.000000
0
VERTEX
8
PLOT
10
15.000000
20
67.200000
30
0.000000
0
VERTEX
8
PLOT
10
15.000000
20
82.200000
30
0.000000
0
VERTEX
8
PLOT
10
9.000000
20
82.200000
30
0.000000
0
SEQEND
8
PLOT
999
URBANOS_PATH f.plot-w-01-01
0
POLYLINE
8
PLOT
66
1
70
1
10
0.000000
20
0.000000
30
0.000000
0
VERTEX
8
PLOT
10
15.000000
20
67.200000
30
0.000000
0
VERTEX
8
PLOT
10
21.000000
20
67.200000
30
0.000000
0
VERTEX
8
PLOT
10
21.000000
20
82.200000
30
0.000000
0
VERTEX
8
PLOT
10
15.000000
20
82.200000
30
0.000000
0
SEQEND
8
PLOT
999
URBANOS_PATH f.plot-w-01-02
0
POLYLINE
8
PLOT
66
1
70
1
10
0.000000
20
0.000000
30
0.000000
0
VERTEX
8
PLOT
10
21.000000
20
67.200000
30
0.000000
0
VERTEX
8
PLOT
10
27.000000
20
67.200000
30
0.000000
0
VERTEX
8
PLOT
10
27.000000
20
82.200000
30
0.000000
0
VERTEX
8
PLOT
10
21.000000
20
82.200000
30
0.000000
0
SEQEND
8
PLOT
999
URBANOS_PATH f.plot-w-01-03
0
POLYLINE
8
PLOT
66
1
70
1
10
0.000000
20
0.000000
30
0.000000
0
VERTEX
8
PLOT
10
27.000000
20
67.200000
30
0.000000
0
VERTEX
8
PLOT
10
33.000000
20
67.200000
30
0.000000
0
VERTEX
8
PLOT
10
33.000000
20
82.200000
30
0.000000
0
VERTEX
8
PLOT
10
27.000000
20
82.200000
30
0.000000
0
SEQEND
8
PLOT
999
URBANOS_PATH f.plot-w-01-04
0
POLYLINE
8
PLOT
66
1
70
1
10
0.000000
20
0.000000
30
0.000000
0
VERTEX
8
PLOT
10
33.000000
20
67.200000
30
0.000000
0
VERTEX
8
PLOT
10
39.000000
20
67.200000
30
0.000000
0
VERTEX
8
PLOT
10
39.000000
20
82.200000
30
0.000000
0
VERTEX
8
PLOT
10
33.000000
20
82.200000
30
0.000000
0
SEQEND
8
PLOT
999
URBANOS_PATH f.plot-w-01-05
0
POLYLINE
8
PLOT
66
1
70
1
10
0.000000
20
0.000000
30
0.000000
0
VERTEX
8
PLOT
10
39.000000
20
67.200000
30
0.000000
0
VERTEX
8
PLOT
10
45.000000
20
67.200000
30
0.000000
0
VERTEX
8
PLOT
10
45.000000
20
82.200000
30
0.000000
0
VERTEX
8
PLOT
10
39.000000
20
82.200000
30
0.000000
0
SEQEND
8
PLOT
999
URBANOS_PATH f.plot-w-01-06
0
POLYLINE
8
PLOT
66
1
70
1
10
0.000000
20
0.000000
30
0.000000
0
VERTEX
8
PLOT
10
45.000000
20
67.200000
30
0.000000
0
VERTEX
8
PLOT
10
51.000000
20
67.200000
30
0.000000
0
VERTEX
8
PLOT
10
51.000000
20
82.200000
30
0.000000
0
VERTEX
8
PLOT
10
45.000000
20
82.200000
30
0.000000
0
SEQEND
8
PLOT
999
URBANOS_PATH f.plot-w-01-07
0
POLYLINE
8
PLOT
66
1
70
1
10
0.000000
20
0.000000
30
0.000000
0
VERTEX
8
PLOT
10
51.000000
20
67.200000
30
0.000000
0
VERTEX
8
PLOT
10
57.000000
20
67.200000
30
0.000000
0
VERTEX
8
PLOT
10
57.000000
20
82.200000
30
0.000000
0
VERTEX
8
PLOT
10
51.000000
20
82.200000
30
0.000000
0
SEQEND
8
PLOT
999
URBANOS_PATH f.plot-w-01-08
0
POLYLINE
8
PLOT
66
1
70
1
10
0.000000
20
0.000000
30
0.000000
0
VERTEX
8
PLOT
10
57.000000
20
67.200000
30
0.000000
0
VERTEX
8
PLOT
10
63.000000
20
67.200000
30
0.000000
0
VERTEX
8
PLOT
10
63.000000
20
82.200000
30
0.000000
0
VERTEX
8
PLOT
10
57.000000
20
82.200000
30
0.000000
0
SEQEND
8
PLOT
999
URBANOS_PATH f.plot-w-01-09
0
POLYLINE
8
PLOT
66
1
70
1
10
0.000000
20
0.000000
30
0.000000
0
VERTEX
8
PLOT
10
63.000000
20
67.200000
30
0.000000
0
VERTEX
8
PLOT
10
69.000000
20
67.200000
30
0.000000
0
VERTEX
8
PLOT
10
69.000000
20
82.200000
30
0.000000
0
VERTEX
8
PLOT
10
63.000000
20
82.200000
30
0.000000
0
SEQEND
8
PLOT
999
URBANOS_PATH f.plot-w-01-10
0
POLYLINE
8
PLOT
66
1
70
1
10
0.000000
20
0.000000
30
0.000000
0
VERTEX
8
PLOT
10
69.000000
20
67.200000
30
0.000000
0
VERTEX
8
PLOT
10
75.000000
20
67.200000
30
0.000000
0
VERTEX
8
PLOT
10
75.000000
20
82.200000
30
0.000000
0
VERTEX
8
PLOT
10
69.000000
20
82.200000
30
0.000000
0
SEQEND
8
PLOT
999
URBANOS_PATH f.plot-w-01-11
0
POLYLINE
8
PLOT
66
1
70
1
10
0.000000
20
0.000000
30
0.000000
0
VERTEX
8
PLOT
10
75.000000
20
67.200000
30
0.000000
0
VERTEX
8
PLOT
10
81.000000
20
67.200000
30
0.000000
0
VERTEX
8
PLOT
10
81.000000
20
82.200000
30
0.000000
0
VERTEX
8
PLOT
10
75.000000
20
82.200000
30
0.000000
0
SEQEND
8
PLOT
999
URBANOS_PATH f.plot-w-01-12
0
POLYLINE
8
PLOT
66
1
70
1
10
0.000000
20
0.000000
30
0.000000
0
VERTEX
8
PLOT
10
90.000000
20
67.200000
30
0.000000
0
VERTEX
8
PLOT
10
96.000000
20
67.200000
30
0.000000
0
VERTEX
8
PLOT
10
96.000000
20
82.200000
30
0.000000
0
VERTEX
8
PLOT
10
90.000000
20
82.200000
30
0.000000
0
SEQEND
8
PLOT
999
URBANOS_PATH f.plot-w-01-13
0
POLYLINE
8
PLOT
66
1
70
1
10
0.000000
20
0.000000
30
0.000000
0
VERTEX
8
PLOT
10
96.000000
20
67.200000
30
0.000000
0
VERTEX
8
PLOT
10
102.000000
20
67.200000
30
0.000000
0
VERTEX
8
PLOT
10
102.000000
20
82.200000
30
0.000000
0
VERTEX
8
PLOT
10
96.000000
20
82.200000
30
0.000000
0
SEQEND
8
PLOT
999
URBANOS_PATH f.plot-w-02-00
0
POLYLINE
8
PLOT
66
1
70
1
10
0.000000
20
0.000000
30
0.000000
0
VERTEX
8
PLOT
10
9.000000
20
82.200000
30
0.000000
0
VERTEX
8
PLOT
10
15.000000
20
82.200000
30
0.000000
0
VERTEX
8
PLOT
10
15.000000
20
97.200000
30
0.000000
0
VERTEX
8
PLOT
10
9.000000
20
97.200000
30
0.000000
0
SEQEND
8
PLOT
999
URBANOS_PATH f.plot-w-02-01
0
POLYLINE
8
PLOT
66
1
70
1
10
0.000000
20
0.000000
30
0.000000
0
VERTEX
8
PLOT
10
15.000000
20
82.200000
30
0.000000
0
VERTEX
8
PLOT
10
21.000000
20
82.200000
30
0.000000
0
VERTEX
8
PLOT
10
21.000000
20
97.200000
30
0.000000
0
VERTEX
8
PLOT
10
15.000000
20
97.200000
30
0.000000
0
SEQEND
8
PLOT
999
URBANOS_PATH f.plot-w-02-02
0
POLYLINE
8
PLOT
66
1
70
1
10
0.000000
20
0.000000
30
0.000000
0
VERTEX
8
PLOT
10
21.000000
20
82.200000
30
0.000000
0
VERTEX
8
PLOT
10
27.000000
20
82.200000
30
0.000000
0
VERTEX
8
PLOT
10
27.000000
20
97.200000
30
0.000000
0
VERTEX
8
PLOT
10
21.000000
20
97.200000
30
0.000000
0
SEQEND
8
PLOT
999
URBANOS_PATH f.plot-w-02-03
0
POLYLINE
8
PLOT
66
1
70
1
10
0.000000
20
0.000000
30
0.000000
0
VERTEX
8
PLOT
10
27.000000
20
82.200000
30
0.000000
0
VERTEX
8
PLOT
10
33.000000
20
82.200000
30
0.000000
0
VERTEX
8
PLOT
10
33.000000
20
97.200000
30
0.000000
0
VERTEX
8
PLOT
10
27.000000
20
97.200000
30
0.000000
0
SEQEND
8
PLOT
999
URBANOS_PATH f.plot-w-02-04
0
POLYLINE
8
PLOT
66
1
70
1
10
0.000000
20
0.000000
30
0.000000
0
VERTEX
8
PLOT
10
33.000000
20
82.200000
30
0.000000
0
VERTEX
8
PLOT
10
39.000000
20
82.200000
30
0.000000
0
VERTEX
8
PLOT
10
39.000000
20
97.200000
30
0.000000
0
VERTEX
8
PLOT
10
33.000000
20
97.200000
30
0.000000
0
SEQEND
8
PLOT
999
URBANOS_PATH f.plot-w-02-05
0
POLYLINE
8
PLOT
66
1
70
1
10
0.000000
20
0.000000
30
0.000000
0
VERTEX
8
PLOT
10
39.000000
20
82.200000
30
0.000000
0
VERTEX
8
PLOT
10
45.000000
20
82.200000
30
0.000000
0
VERTEX
8
PLOT
10
45.000000
20
97.200000
30
0.000000
0
VERTEX
8
PLOT
10
39.000000
20
97.200000
30
0.000000
0
SEQEND
8
PLOT
999
URBANOS_PATH f.plot-w-02-06
0
POLYLINE
8
PLOT
66
1
70
1
10
0.000000
20
0.000000
30
0.000000
0
VERTEX
8
PLOT
10
45.000000
20
82.200000
30
0.000000
0
VERTEX
8
PLOT
10
51.000000
20
82.200000
30
0.000000
0
VERTEX
8
PLOT
10
51.000000
20
97.200000
30
0.000000
0
VERTEX
8
PLOT
10
45.000000
20
97.200000
30
0.000000
0
SEQEND
8
PLOT
999
URBANOS_PATH f.plot-w-02-07
0
POLYLINE
8
PLOT
66
1
70
1
10
0.000000
20
0.000000
30
0.000000
0
VERTEX
8
PLOT
10
51.000000
20
82.200000
30
0.000000
0
VERTEX
8
PLOT
10
57.000000
20
82.200000
30
0.000000
0
VERTEX
8
PLOT
10
57.000000
20
97.200000
30
0.000000
0
VERTEX
8
PLOT
10
51.000000
20
97.200000
30
0.000000
0
SEQEND
8
PLOT
999
URBANOS_PATH f.plot-w-02-08
0
POLYLINE
8
PLOT
66
1
70
1
10
0.000000
20
0.000000
30
0.000000
0
VERTEX
8
PLOT
10
57.000000
20
82.200000
30
0.000000
0
VERTEX
8
PLOT
10
63.000000
20
82.200000
30
0.000000
0
VERTEX
8
PLOT
10
63.000000
20
97.200000
30
0.000000
0
VERTEX
8
PLOT
10
57.000000
20
97.200000
30
0.000000
0
SEQEND
8
PLOT
999
URBANOS_PATH f.plot-w-02-09
0
POLYLINE
8
PLOT
66
1
70
1
10
0.000000
20
0.000000
30
0.000000
0
VERTEX
8
PLOT
10
63.000000
20
82.200000
30
0.000000
0
VERTEX
8
PLOT
10
69.000000
20
82.200000
30
0.000000
0
VERTEX
8
PLOT
10
69.000000
20
97.200000
30
0.000000
0
VERTEX
8
PLOT
10
63.000000
20
97.200000
30
0.000000
0
SEQEND
8
PLOT
999
URBANOS_PATH f.plot-w-02-10
0
POLYLINE
8
PLOT
66
1
70
1
10
0.000000
20
0.000000
30
0.000000
0
VERTEX
8
PLOT
10
69.000000
20
82.200000
30
0.000000
0
VERTEX
8
PLOT
10
75.000000
20
82.200000
30
0.000000
0
VERTEX
8
PLOT
10
75.000000
20
97.200000
30
0.000000
0
VERTEX
8
PLOT
10
69.000000
20
97.200000
30
0.000000
0
SEQEND
8
PLOT
999
URBANOS_PATH f.plot-w-02-11
0
POLYLINE
8
PLOT
66
1
70
1
10
0.000000
20
0.000000
30
0.000000
0
VERTEX
8
PLOT
10
75.000000
20
82.200000
30
0.000000
0
VERTEX
8
PLOT
10
81.000000
20
82.200000
30
0.000000
0
VERTEX
8
PLOT
10
81.000000
20
97.200000
30
0.000000
0
VERTEX
8
PLOT
10
75.000000
20
97.200000
30
0.000000
0
SEQEND
8
PLOT
999
URBANOS_PATH f.plot-w-02-12
0
POLYLINE
8
PLOT
66
1
70
1
10
0.000000
20
0.000000
30
0.000000
0
VERTEX
8
PLOT
10
90.000000
20
82.200000
30
0.000000
0
VERTEX
8
PLOT
10
96.000000
20
82.200000
30
0.000000
0
VERTEX
8
PLOT
10
96.000000
20
97.200000
30
0.000000
0
VERTEX
8
PLOT
10
90.000000
20
97.200000
30
0.000000
0
SEQEND
8
PLOT
999
URBANOS_PATH f.plot-w-02-13
0
POLYLINE
8
PLOT
66
1
70
1
10
0.000000
20
0.000000
30
0.000000
0
VERTEX
8
PLOT
10
96.000000
20
82.200000
30
0.000000
0
VERTEX
8
PLOT
10
102.000000
20
82.200000
30
0.000000
0
VERTEX
8
PLOT
10
102.000000
20
97.200000
30
0.000000
0
VERTEX
8
PLOT
10
96.000000
20
97.200000
30
0.000000
0
SEQEND
8
PLOT
999
URBANOS_PATH f.plot-w-03-00
0
POLYLINE
8
PLOT
66
1
70
1
10
0.000000
20
0.000000
30
0.000000
0
VERTEX
8
PLOT
10
9.000000
20
106.200000
30
0.000000
0
VERTEX
8
PLOT
10
15.000000
20
106.200000
30
0.000000
0
VERTEX
8
PLOT
10
15.000000
20
121.200000
30
0.000000
0
VERTEX
8
PLOT
10
9.000000
20
121.200000
30
0.000000
0
SEQEND
8
PLOT
999
URBANOS_PATH f.plot-w-03-01
0
POLYLINE
8
PLOT
66
1
70
1
10
0.000000
20
0.000000
30
0.000000
0
VERTEX
8
PLOT
10
15.000000
20
106.200000
30
0.000000
0
VERTEX
8
PLOT
10
21.000000
20
106.200000
30
0.000000
0
VERTEX
8
PLOT
10
21.000000
20
121.200000
30
0.000000
0
VERTEX
8
PLOT
10
15.000000
20
121.200000
30
0.000000
0
SEQEND
8
PLOT
999
URBANOS_PATH f.plot-w-03-02
0
POLYLINE
8
PLOT
66
1
70
1
10
0.000000
20
0.000000
30
0.000000
0
VERTEX
8
PLOT
10
21.000000
20
106.200000
30
0.000000
0
VERTEX
8
PLOT
10
27.000000
20
106.200000
30
0.000000
0
VERTEX
8
PLOT
10
27.000000
20
121.200000
30
0.000000
0
VERTEX
8
PLOT
10
21.000000
20
121.200000
30
0.000000
0
SEQEND
8
PLOT
999
URBANOS_PATH f.plot-w-03-03
0
POLYLINE
8
PLOT
66
1
70
1
10
0.000000
20
0.000000
30
0.000000
0
VERTEX
8
PLOT
10
27.000000
20
106.200000
30
0.000000
0
VERTEX
8
PLOT
10
33.000000
20
106.200000
30
0.000000
0
VERTEX
8
PLOT
10
33.000000
20
121.200000
30
0.000000
0
VERTEX
8
PLOT
10
27.000000
20
121.200000
30
0.000000
0
SEQEND
8
PLOT
999
URBANOS_PATH f.plot-w-03-04
0
POLYLINE
8
PLOT
66
1
70
1
10
0.000000
20
0.000000
30
0.000000
0
VERTEX
8
PLOT
10
33.000000
20
106.200000
30
0.000000
0
VERTEX
8
PLOT
10
39.000000
20
106.200000
30
0.000000
0
VERTEX
8
PLOT
10
39.000000
20
121.200000
30
0.000000
0
VERTEX
8
PLOT
10
33.000000
20
121.200000
30
0.000000
0
SEQEND
8
PLOT
999
URBANOS_PATH f.plot-w-03-05
0
POLYLINE
8
PLOT
66
1
70
1
10
0.000000
20
0.000000
30
0.000000
0
VERTEX
8
PLOT
10
39.000000
20
106.200000
30
0.000000
0
VERTEX
8
PLOT
10
45.000000
20
106.200000
30
0.000000
0
VERTEX
8
PLOT
10
45.000000
20
121.200000
30
0.000000
0
VERTEX
8
PLOT
10
39.000000
20
121.200000
30
0.000000
0
SEQEND
8
PLOT
999
URBANOS_PATH f.plot-w-03-06
0
POLYLINE
8
PLOT
66
1
70
1
10
0.000000
20
0.000000
30
0.000000
0
VERTEX
8
PLOT
10
45.000000
20
106.200000
30
0.000000
0
VERTEX
8
PLOT
10
51.000000
20
106.200000
30
0.000000
0
VERTEX
8
PLOT
10
51.000000
20
121.200000
30
0.000000
0
VERTEX
8
PLOT
10
45.000000
20
121.200000
30
0.000000
0
SEQEND
8
PLOT
999
URBANOS_PATH f.plot-w-03-07
0
POLYLINE
8
PLOT
66
1
70
1
10
0.000000
20
0.000000
30
0.000000
0
VERTEX
8
PLOT
10
51.000000
20
106.200000
30
0.000000
0
VERTEX
8
PLOT
10
57.000000
20
106.200000
30
0.000000
0
VERTEX
8
PLOT
10
57.000000
20
121.200000
30
0.000000
0
VERTEX
8
PLOT
10
51.000000
20
121.200000
30
0.000000
0
SEQEND
8
PLOT
999
URBANOS_PATH f.plot-w-03-08
0
POLYLINE
8
PLOT
66
1
70
1
10
0.000000
20
0.000000
30
0.000000
0
VERTEX
8
PLOT
10
57.000000
20
106.200000
30
0.000000
0
VERTEX
8
PLOT
10
63.000000
20
106.200000
30
0.000000
0
VERTEX
8
PLOT
10
63.000000
20
121.200000
30
0.000000
0
VERTEX
8
PLOT
10
57.000000
20
121.200000
30
0.000000
0
SEQEND
8
PLOT
999
URBANOS_PATH f.plot-w-03-09
0
POLYLINE
8
PLOT
66
1
70
1
10
0.000000
20
0.000000
30
0.000000
0
VERTEX
8
PLOT
10
63.000000
20
106.200000
30
0.000000
0
VERTEX
8
PLOT
10
69.000000
20
106.200000
30
0.000000
0
VERTEX
8
PLOT
10
69.000000
20
121.200000
30
0.000000
0
VERTEX
8
PLOT
10
63.000000
20
121.200000
30
0.000000
0
SEQEND
8
PLOT
999
URBANOS_PATH f.plot-w-03-10
0
POLYLINE
8
PLOT
66
1
70
1
10
0.000000
20
0.000000
30
0.000000
0
VERTEX
8
PLOT
10
69.000000
20
106.200000
30
0.000000
0
VERTEX
8
PLOT
10
75.000000
20
106.200000
30
0.000000
0
VERTEX
8
PLOT
10
75.000000
20
121.200000
30
0.000000
0
VERTEX
8
PLOT
10
69.000000
20
121.200000
30
0.000000
0
SEQEND
8
PLOT
999
URBANOS_PATH f.plot-w-03-11
0
POLYLINE
8
PLOT
66
1
70
1
10
0.000000
20
0.000000
30
0.000000
0
VERTEX
8
PLOT
10
75.000000
20
106.200000
30
0.000000
0
VERTEX
8
PLOT
10
81.000000
20
106.200000
30
0.000000
0
VERTEX
8
PLOT
10
81.000000
20
121.200000
30
0.000000
0
VERTEX
8
PLOT
10
75.000000
20
121.200000
30
0.000000
0
SEQEND
8
PLOT
999
URBANOS_PATH f.plot-w-03-12
0
POLYLINE
8
PLOT
66
1
70
1
10
0.000000
20
0.000000
30
0.000000
0
VERTEX
8
PLOT
10
90.000000
20
106.200000
30
0.000000
0
VERTEX
8
PLOT
10
96.000000
20
106.200000
30
0.000000
0
VERTEX
8
PLOT
10
96.000000
20
121.200000
30
0.000000
0
VERTEX
8
PLOT
10
90.000000
20
121.200000
30
0.000000
0
SEQEND
8
PLOT
999
URBANOS_PATH f.plot-w-03-13
0
POLYLINE
8
PLOT
66
1
70
1
10
0.000000
20
0.000000
30
0.000000
0
VERTEX
8
PLOT
10
96.000000
20
106.200000
30
0.000000
0
VERTEX
8
PLOT
10
102.000000
20
106.200000
30
0.000000
0
VERTEX
8
PLOT
10
102.000000
20
121.200000
30
0.000000
0
VERTEX
8
PLOT
10
96.000000
20
121.200000
30
0.000000
0
SEQEND
8
PLOT
999
URBANOS_PATH f.plot-w-04-00
0
POLYLINE
8
PLOT
66
1
70
1
10
0.000000
20
0.000000
30
0.000000
0
VERTEX
8
PLOT
10
9.000000
20
121.200000
30
0.000000
0
VERTEX
8
PLOT
10
15.000000
20
121.200000
30
0.000000
0
VERTEX
8
PLOT
10
15.000000
20
136.200000
30
0.000000
0
VERTEX
8
PLOT
10
9.000000
20
136.200000
30
0.000000
0
SEQEND
8
PLOT
999
URBANOS_PATH f.plot-w-04-01
0
POLYLINE
8
PLOT
66
1
70
1
10
0.000000
20
0.000000
30
0.000000
0
VERTEX
8
PLOT
10
15.000000
20
121.200000
30
0.000000
0
VERTEX
8
PLOT
10
21.000000
20
121.200000
30
0.000000
0
VERTEX
8
PLOT
10
21.000000
20
136.200000
30
0.000000
0
VERTEX
8
PLOT
10
15.000000
20
136.200000
30
0.000000
0
SEQEND
8
PLOT
999
URBANOS_PATH f.plot-w-04-02
0
POLYLINE
8
PLOT
66
1
70
1
10
0.000000
20
0.000000
30
0.000000
0
VERTEX
8
PLOT
10
21.000000
20
121.200000
30
0.000000
0
VERTEX
8
PLOT
10
27.000000
20
121.200000
30
0.000000
0
VERTEX
8
PLOT
10
27.000000
20
136.200000
30
0.000000
0
VERTEX
8
PLOT
10
21.000000
20
136.200000
30
0.000000
0
SEQEND
8
PLOT
999
URBANOS_PATH f.plot-w-04-03
0
POLYLINE
8
PLOT
66
1
70
1
10
0.000000
20
0.000000
30
0.000000
0
VERTEX
8
PLOT
10
27.000000
20
121.200000
30
0.000000
0
VERTEX
8
PLOT
10
33.000000
20
121.200000
30
0.000000
0
VERTEX
8
PLOT
10
33.000000
20
136.200000
30
0.000000
0
VERTEX
8
PLOT
10
27.000000
20
136.200000
30
0.000000
0
SEQEND
8
PLOT
999
URBANOS_PATH f.plot-w-04-04
0
POLYLINE
8
PLOT
66
1
70
1
10
0.000000
20
0.000000
30
0.000000
0
VERTEX
8
PLOT
10
33.000000
20
121.200000
30
0.000000
0
VERTEX
8
PLOT
10
39.000000
20
121.200000
30
0.000000
0
VERTEX
8
PLOT
10
39.000000
20
136.200000
30
0.000000
0
VERTEX
8
PLOT
10
33.000000
20
136.200000
30
0.000000
0
SEQEND
8
PLOT
999
URBANOS_PATH f.plot-w-04-05
0
POLYLINE
8
PLOT
66
1
70
1
10
0.000000
20
0.000000
30
0.000000
0
VERTEX
8
PLOT
10
39.000000
20
121.200000
30
0.000000
0
VERTEX
8
PLOT
10
45.000000
20
121.200000
30
0.000000
0
VERTEX
8
PLOT
10
45.000000
20
136.200000
30
0.000000
0
VERTEX
8
PLOT
10
39.000000
20
136.200000
30
0.000000
0
SEQEND
8
PLOT
999
URBANOS_PATH f.plot-w-04-06
0
POLYLINE
8
PLOT
66
1
70
1
10
0.000000
20
0.000000
30
0.000000
0
VERTEX
8
PLOT
10
45.000000
20
121.200000
30
0.000000
0
VERTEX
8
PLOT
10
51.000000
20
121.200000
30
0.000000
0
VERTEX
8
PLOT
10
51.000000
20
136.200000
30
0.000000
0
VERTEX
8
PLOT
10
45.000000
20
136.200000
30
0.000000
0
SEQEND
8
PLOT
999
URBANOS_PATH f.plot-w-04-07
0
POLYLINE
8
PLOT
66
1
70
1
10
0.000000
20
0.000000
30
0.000000
0
VERTEX
8
PLOT
10
51.000000
20
121.200000
30
0.000000
0
VERTEX
8
PLOT
10
57.000000
20
121.200000
30
0.000000
0
VERTEX
8
PLOT
10
57.000000
20
136.200000
30
0.000000
0
VERTEX
8
PLOT
10
51.000000
20
136.200000
30
0.000000
0
SEQEND
8
PLOT
999
URBANOS_PATH f.plot-w-04-08
0
POLYLINE
8
PLOT
66
1
70
1
10
0.000000
20
0.000000
30
0.000000
0
VERTEX
8
PLOT
10
57.000000
20
121.200000
30
0.000000
0
VERTEX
8
PLOT
10
63.000000
20
121.200000
30
0.000000
0
VERTEX
8
PLOT
10
63.000000
20
136.200000
30
0.000000
0
VERTEX
8
PLOT
10
57.000000
20
136.200000
30
0.000000
0
SEQEND
8
PLOT
999
URBANOS_PATH f.plot-w-04-09
0
POLYLINE
8
PLOT
66
1
70
1
10
0.000000
20
0.000000
30
0.000000
0
VERTEX
8
PLOT
10
63.000000
20
121.200000
30
0.000000
0
VERTEX
8
PLOT
10
69.000000
20
121.200000
30
0.000000
0
VERTEX
8
PLOT
10
69.000000
20
136.200000
30
0.000000
0
VERTEX
8
PLOT
10
63.000000
20
136.200000
30
0.000000
0
SEQEND
8
PLOT
999
URBANOS_PATH f.plot-w-04-10
0
POLYLINE
8
PLOT
66
1
70
1
10
0.000000
20
0.000000
30
0.000000
0
VERTEX
8
PLOT
10
69.000000
20
121.200000
30
0.000000
0
VERTEX
8
PLOT
10
75.000000
20
121.200000
30
0.000000
0
VERTEX
8
PLOT
10
75.000000
20
136.200000
30
0.000000
0
VERTEX
8
PLOT
10
69.000000
20
136.200000
30
0.000000
0
SEQEND
8
PLOT
999
URBANOS_PATH f.plot-w-04-11
0
POLYLINE
8
PLOT
66
1
70
1
10
0.000000
20
0.000000
30
0.000000
0
VERTEX
8
PLOT
10
75.000000
20
121.200000
30
0.000000
0
VERTEX
8
PLOT
10
81.000000
20
121.200000
30
0.000000
0
VERTEX
8
PLOT
10
81.000000
20
136.200000
30
0.000000
0
VERTEX
8
PLOT
10
75.000000
20
136.200000
30
0.000000
0
SEQEND
8
PLOT
999
URBANOS_PATH f.plot-w-04-12
0
POLYLINE
8
PLOT
66
1
70
1
10
0.000000
20
0.000000
30
0.000000
0
VERTEX
8
PLOT
10
90.000000
20
121.200000
30
0.000000
0
VERTEX
8
PLOT
10
96.000000
20
121.200000
30
0.000000
0
VERTEX
8
PLOT
10
96.000000
20
136.200000
30
0.000000
0
VERTEX
8
PLOT
10
90.000000
20
136.200000
30
0.000000
0
SEQEND
8
PLOT
999
URBANOS_PATH f.plot-w-04-13
0
POLYLINE
8
PLOT
66
1
70
1
10
0.000000
20
0.000000
30
0.000000
0
VERTEX
8
PLOT
10
96.000000
20
121.200000
30
0.000000
0
VERTEX
8
PLOT
10
102.000000
20
121.200000
30
0.000000
0
VERTEX
8
PLOT
10
102.000000
20
136.200000
30
0.000000
0
VERTEX
8
PLOT
10
96.000000
20
136.200000
30
0.000000
0
SEQEND
8
PLOT
999
URBANOS_PATH f.plot-w-05-00
0
POLYLINE
8
PLOT
66
1
70
1
10
0.000000
20
0.000000
30
0.000000
0
VERTEX
8
PLOT
10
9.000000
20
145.200000
30
0.000000
0
VERTEX
8
PLOT
10
15.000000
20
145.200000
30
0.000000
0
VERTEX
8
PLOT
10
15.000000
20
160.200000
30
0.000000
0
VERTEX
8
PLOT
10
9.000000
20
160.200000
30
0.000000
0
SEQEND
8
PLOT
999
URBANOS_PATH f.plot-w-05-01
0
POLYLINE
8
PLOT
66
1
70
1
10
0.000000
20
0.000000
30
0.000000
0
VERTEX
8
PLOT
10
15.000000
20
145.200000
30
0.000000
0
VERTEX
8
PLOT
10
21.000000
20
145.200000
30
0.000000
0
VERTEX
8
PLOT
10
21.000000
20
160.200000
30
0.000000
0
VERTEX
8
PLOT
10
15.000000
20
160.200000
30
0.000000
0
SEQEND
8
PLOT
999
URBANOS_PATH f.plot-w-05-02
0
POLYLINE
8
PLOT
66
1
70
1
10
0.000000
20
0.000000
30
0.000000
0
VERTEX
8
PLOT
10
21.000000
20
145.200000
30
0.000000
0
VERTEX
8
PLOT
10
27.000000
20
145.200000
30
0.000000
0
VERTEX
8
PLOT
10
27.000000
20
160.200000
30
0.000000
0
VERTEX
8
PLOT
10
21.000000
20
160.200000
30
0.000000
0
SEQEND
8
PLOT
999
URBANOS_PATH f.plot-w-05-03
0
POLYLINE
8
PLOT
66
1
70
1
10
0.000000
20
0.000000
30
0.000000
0
VERTEX
8
PLOT
10
27.000000
20
145.200000
30
0.000000
0
VERTEX
8
PLOT
10
33.000000
20
145.200000
30
0.000000
0
VERTEX
8
PLOT
10
33.000000
20
160.200000
30
0.000000
0
VERTEX
8
PLOT
10
27.000000
20
160.200000
30
0.000000
0
SEQEND
8
PLOT
999
URBANOS_PATH f.plot-w-05-04
0
POLYLINE
8
PLOT
66
1
70
1
10
0.000000
20
0.000000
30
0.000000
0
VERTEX
8
PLOT
10
33.000000
20
145.200000
30
0.000000
0
VERTEX
8
PLOT
10
39.000000
20
145.200000
30
0.000000
0
VERTEX
8
PLOT
10
39.000000
20
160.200000
30
0.000000
0
VERTEX
8
PLOT
10
33.000000
20
160.200000
30
0.000000
0
SEQEND
8
PLOT
999
URBANOS_PATH f.plot-w-05-05
0
POLYLINE
8
PLOT
66
1
70
1
10
0.000000
20
0.000000
30
0.000000
0
VERTEX
8
PLOT
10
39.000000
20
145.200000
30
0.000000
0
VERTEX
8
PLOT
10
45.000000
20
145.200000
30
0.000000
0
VERTEX
8
PLOT
10
45.000000
20
160.200000
30
0.000000
0
VERTEX
8
PLOT
10
39.000000
20
160.200000
30
0.000000
0
SEQEND
8
PLOT
999
URBANOS_PATH f.plot-w-05-06
0
POLYLINE
8
PLOT
66
1
70
1
10
0.000000
20
0.000000
30
0.000000
0
VERTEX
8
PLOT
10
45.000000
20
145.200000
30
0.000000
0
VERTEX
8
PLOT
10
51.000000
20
145.200000
30
0.000000
0
VERTEX
8
PLOT
10
51.000000
20
160.200000
30
0.000000
0
VERTEX
8
PLOT
10
45.000000
20
160.200000
30
0.000000
0
SEQEND
8
PLOT
999
URBANOS_PATH f.plot-w-05-07
0
POLYLINE
8
PLOT
66
1
70
1
10
0.000000
20
0.000000
30
0.000000
0
VERTEX
8
PLOT
10
51.000000
20
145.200000
30
0.000000
0
VERTEX
8
PLOT
10
57.000000
20
145.200000
30
0.000000
0
VERTEX
8
PLOT
10
57.000000
20
160.200000
30
0.000000
0
VERTEX
8
PLOT
10
51.000000
20
160.200000
30
0.000000
0
SEQEND
8
PLOT
999
URBANOS_PATH f.plot-w-05-08
0
POLYLINE
8
PLOT
66
1
70
1
10
0.000000
20
0.000000
30
0.000000
0
VERTEX
8
PLOT
10
57.000000
20
145.200000
30
0.000000
0
VERTEX
8
PLOT
10
63.000000
20
145.200000
30
0.000000
0
VERTEX
8
PLOT
10
63.000000
20
160.200000
30
0.000000
0
VERTEX
8
PLOT
10
57.000000
20
160.200000
30
0.000000
0
SEQEND
8
PLOT
999
URBANOS_PATH f.plot-w-05-09
0
POLYLINE
8
PLOT
66
1
70
1
10
0.000000
20
0.000000
30
0.000000
0
VERTEX
8
PLOT
10
63.000000
20
145.200000
30
0.000000
0
VERTEX
8
PLOT
10
69.000000
20
145.200000
30
0.000000
0
VERTEX
8
PLOT
10
69.000000
20
160.200000
30
0.000000
0
VERTEX
8
PLOT
10
63.000000
20
160.200000
30
0.000000
0
SEQEND
8
PLOT
999
URBANOS_PATH f.plot-w-05-10
0
POLYLINE
8
PLOT
66
1
70
1
10
0.000000
20
0.000000
30
0.000000
0
VERTEX
8
PLOT
10
69.000000
20
145.200000
30
0.000000
0
VERTEX
8
PLOT
10
75.000000
20
145.200000
30
0.000000
0
VERTEX
8
PLOT
10
75.000000
20
160.200000
30
0.000000
0
VERTEX
8
PLOT
10
69.000000
20
160.200000
30
0.000000
0
SEQEND
8
PLOT
999
URBANOS_PATH f.plot-w-05-11
0
POLYLINE
8
PLOT
66
1
70
1
10
0.000000
20
0.000000
30
0.000000
0
VERTEX
8
PLOT
10
75.000000
20
145.200000
30
0.000000
0
VERTEX
8
PLOT
10
81.000000
20
145.200000
30
0.000000
0
VERTEX
8
PLOT
10
81.000000
20
160.200000
30
0.000000
0
VERTEX
8
PLOT
10
75.000000
20
160.200000
30
0.000000
0
SEQEND
8
PLOT
999
URBANOS_PATH f.plot-w-05-12
0
POLYLINE
8
PLOT
66
1
70
1
10
0.000000
20
0.000000
30
0.000000
0
VERTEX
8
PLOT
10
90.000000
20
145.200000
30
0.000000
0
VERTEX
8
PLOT
10
96.000000
20
145.200000
30
0.000000
0
VERTEX
8
PLOT
10
96.000000
20
160.200000
30
0.000000
0
VERTEX
8
PLOT
10
90.000000
20
160.200000
30
0.000000
0
SEQEND
8
PLOT
999
URBANOS_PATH f.plot-w-05-13
0
POLYLINE
8
PLOT
66
1
70
1
10
0.000000
20
0.000000
30
0.000000
0
VERTEX
8
PLOT
10
96.000000
20
145.200000
30
0.000000
0
VERTEX
8
PLOT
10
102.000000
20
145.200000
30
0.000000
0
VERTEX
8
PLOT
10
102.000000
20
160.200000
30
0.000000
0
VERTEX
8
PLOT
10
96.000000
20
160.200000
30
0.000000
0
SEQEND
8
PLOT
999
URBANOS_PATH f.plot-e-00-00
0
POLYLINE
8
PLOT
66
1
70
1
10
0.000000
20
0.000000
30
0.000000
0
VERTEX
8
PLOT
10
118.500000
20
88.200000
30
0.000000
0
VERTEX
8
PLOT
10
124.500000
20
88.200000
30
0.000000
0
VERTEX
8
PLOT
10
124.500000
20
103.200000
30
0.000000
0
VERTEX
8
PLOT
10
118.500000
20
103.200000
30
0.000000
0
SEQEND
8
PLOT
999
URBANOS_PATH f.plot-e-00-01
0
POLYLINE
8
PLOT
66
1
70
1
10
0.000000
20
0.000000
30
0.000000
0
VERTEX
8
PLOT
10
124.500000
20
88.200000
30
0.000000
0
VERTEX
8
PLOT
10
130.500000
20
88.200000
30
0.000000
0
VERTEX
8
PLOT
10
130.500000
20
103.200000
30
0.000000
0
VERTEX
8
PLOT
10
124.500000
20
103.200000
30
0.000000
0
SEQEND
8
PLOT
999
URBANOS_PATH f.plot-e-00-02
0
POLYLINE
8
PLOT
66
1
70
1
10
0.000000
20
0.000000
30
0.000000
0
VERTEX
8
PLOT
10
130.500000
20
88.200000
30
0.000000
0
VERTEX
8
PLOT
10
136.500000
20
88.200000
30
0.000000
0
VERTEX
8
PLOT
10
136.500000
20
103.200000
30
0.000000
0
VERTEX
8
PLOT
10
130.500000
20
103.200000
30
0.000000
0
SEQEND
8
PLOT
999
URBANOS_PATH f.plot-e-00-03
0
POLYLINE
8
PLOT
66
1
70
1
10
0.000000
20
0.000000
30
0.000000
0
VERTEX
8
PLOT
10
136.500000
20
88.200000
30
0.000000
0
VERTEX
8
PLOT
10
142.500000
20
88.200000
30
0.000000
0
VERTEX
8
PLOT
10
142.500000
20
103.200000
30
0.000000
0
VERTEX
8
PLOT
10
136.500000
20
103.200000
30
0.000000
0
SEQEND
8
PLOT
999
URBANOS_PATH f.plot-e-00-04
0
POLYLINE
8
PLOT
66
1
70
1
10
0.000000
20
0.000000
30
0.000000
0
VERTEX
8
PLOT
10
142.500000
20
88.200000
30
0.000000
0
VERTEX
8
PLOT
10
148.500000
20
88.200000
30
0.000000
0
VERTEX
8
PLOT
10
148.500000
20
103.200000
30
0.000000
0
VERTEX
8
PLOT
10
142.500000
20
103.200000
30
0.000000
0
SEQEND
8
PLOT
999
URBANOS_PATH f.plot-e-00-05
0
POLYLINE
8
PLOT
66
1
70
1
10
0.000000
20
0.000000
30
0.000000
0
VERTEX
8
PLOT
10
148.500000
20
88.200000
30
0.000000
0
VERTEX
8
PLOT
10
154.500000
20
88.200000
30
0.000000
0
VERTEX
8
PLOT
10
154.500000
20
103.200000
30
0.000000
0
VERTEX
8
PLOT
10
148.500000
20
103.200000
30
0.000000
0
SEQEND
8
PLOT
999
URBANOS_PATH f.plot-e-00-06
0
POLYLINE
8
PLOT
66
1
70
1
10
0.000000
20
0.000000
30
0.000000
0
VERTEX
8
PLOT
10
154.500000
20
88.200000
30
0.000000
0
VERTEX
8
PLOT
10
160.500000
20
88.200000
30
0.000000
0
VERTEX
8
PLOT
10
160.500000
20
103.200000
30
0.000000
0
VERTEX
8
PLOT
10
154.500000
20
103.200000
30
0.000000
0
SEQEND
8
PLOT
999
URBANOS_PATH f.plot-e-00-07
0
POLYLINE
8
PLOT
66
1
70
1
10
0.000000
20
0.000000
30
0.000000
0
VERTEX
8
PLOT
10
160.500000
20
88.200000
30
0.000000
0
VERTEX
8
PLOT
10
166.500000
20
88.200000
30
0.000000
0
VERTEX
8
PLOT
10
166.500000
20
103.200000
30
0.000000
0
VERTEX
8
PLOT
10
160.500000
20
103.200000
30
0.000000
0
SEQEND
8
PLOT
999
URBANOS_PATH f.plot-e-00-08
0
POLYLINE
8
PLOT
66
1
70
1
10
0.000000
20
0.000000
30
0.000000
0
VERTEX
8
PLOT
10
166.500000
20
88.200000
30
0.000000
0
VERTEX
8
PLOT
10
172.500000
20
88.200000
30
0.000000
0
VERTEX
8
PLOT
10
172.500000
20
103.200000
30
0.000000
0
VERTEX
8
PLOT
10
166.500000
20
103.200000
30
0.000000
0
SEQEND
8
PLOT
999
URBANOS_PATH f.plot-e-00-09
0
POLYLINE
8
PLOT
66
1
70
1
10
0.000000
20
0.000000
30
0.000000
0
VERTEX
8
PLOT
10
172.500000
20
88.200000
30
0.000000
0
VERTEX
8
PLOT
10
178.500000
20
88.200000
30
0.000000
0
VERTEX
8
PLOT
10
178.500000
20
103.200000
30
0.000000
0
VERTEX
8
PLOT
10
172.500000
20
103.200000
30
0.000000
0
SEQEND
8
PLOT
999
URBANOS_PATH f.plot-e-00-10
0
POLYLINE
8
PLOT
66
1
70
1
10
0.000000
20
0.000000
30
0.000000
0
VERTEX
8
PLOT
10
178.500000
20
88.200000
30
0.000000
0
VERTEX
8
PLOT
10
184.500000
20
88.200000
30
0.000000
0
VERTEX
8
PLOT
10
184.500000
20
103.200000
30
0.000000
0
VERTEX
8
PLOT
10
178.500000
20
103.200000
30
0.000000
0
SEQEND
8
PLOT
999
URBANOS_PATH f.plot-e-00-11
0
POLYLINE
8
PLOT
66
1
70
1
10
0.000000
20
0.000000
30
0.000000
0
VERTEX
8
PLOT
10
184.500000
20
88.200000
30
0.000000
0
VERTEX
8
PLOT
10
190.500000
20
88.200000
30
0.000000
0
VERTEX
8
PLOT
10
190.500000
20
103.200000
30
0.000000
0
VERTEX
8
PLOT
10
184.500000
20
103.200000
30
0.000000
0
SEQEND
8
PLOT
999
URBANOS_PATH f.plot-e-00-12
0
POLYLINE
8
PLOT
66
1
70
1
10
0.000000
20
0.000000
30
0.000000
0
VERTEX
8
PLOT
10
199.500000
20
88.200000
30
0.000000
0
VERTEX
8
PLOT
10
205.500000
20
88.200000
30
0.000000
0
VERTEX
8
PLOT
10
205.500000
20
103.200000
30
0.000000
0
VERTEX
8
PLOT
10
199.500000
20
103.200000
30
0.000000
0
SEQEND
8
PLOT
999
URBANOS_PATH f.plot-e-00-13
0
POLYLINE
8
PLOT
66
1
70
1
10
0.000000
20
0.000000
30
0.000000
0
VERTEX
8
PLOT
10
205.500000
20
88.200000
30
0.000000
0
VERTEX
8
PLOT
10
211.500000
20
88.200000
30
0.000000
0
VERTEX
8
PLOT
10
211.500000
20
103.200000
30
0.000000
0
VERTEX
8
PLOT
10
205.500000
20
103.200000
30
0.000000
0
SEQEND
8
PLOT
999
URBANOS_PATH f.plot-e-01-00
0
POLYLINE
8
PLOT
66
1
70
1
10
0.000000
20
0.000000
30
0.000000
0
VERTEX
8
PLOT
10
118.500000
20
112.200000
30
0.000000
0
VERTEX
8
PLOT
10
124.500000
20
112.200000
30
0.000000
0
VERTEX
8
PLOT
10
124.500000
20
127.200000
30
0.000000
0
VERTEX
8
PLOT
10
118.500000
20
127.200000
30
0.000000
0
SEQEND
8
PLOT
999
URBANOS_PATH f.plot-e-01-01
0
POLYLINE
8
PLOT
66
1
70
1
10
0.000000
20
0.000000
30
0.000000
0
VERTEX
8
PLOT
10
124.500000
20
112.200000
30
0.000000
0
VERTEX
8
PLOT
10
130.500000
20
112.200000
30
0.000000
0
VERTEX
8
PLOT
10
130.500000
20
127.200000
30
0.000000
0
VERTEX
8
PLOT
10
124.500000
20
127.200000
30
0.000000
0
SEQEND
8
PLOT
999
URBANOS_PATH f.plot-e-01-02
0
POLYLINE
8
PLOT
66
1
70
1
10
0.000000
20
0.000000
30
0.000000
0
VERTEX
8
PLOT
10
130.500000
20
112.200000
30
0.000000
0
VERTEX
8
PLOT
10
136.500000
20
112.200000
30
0.000000
0
VERTEX
8
PLOT
10
136.500000
20
127.200000
30
0.000000
0
VERTEX
8
PLOT
10
130.500000
20
127.200000
30
0.000000
0
SEQEND
8
PLOT
999
URBANOS_PATH f.plot-e-01-03
0
POLYLINE
8
PLOT
66
1
70
1
10
0.000000
20
0.000000
30
0.000000
0
VERTEX
8
PLOT
10
136.500000
20
112.200000
30
0.000000
0
VERTEX
8
PLOT
10
142.500000
20
112.200000
30
0.000000
0
VERTEX
8
PLOT
10
142.500000
20
127.200000
30
0.000000
0
VERTEX
8
PLOT
10
136.500000
20
127.200000
30
0.000000
0
SEQEND
8
PLOT
999
URBANOS_PATH f.plot-e-01-04
0
POLYLINE
8
PLOT
66
1
70
1
10
0.000000
20
0.000000
30
0.000000
0
VERTEX
8
PLOT
10
142.500000
20
112.200000
30
0.000000
0
VERTEX
8
PLOT
10
148.500000
20
112.200000
30
0.000000
0
VERTEX
8
PLOT
10
148.500000
20
127.200000
30
0.000000
0
VERTEX
8
PLOT
10
142.500000
20
127.200000
30
0.000000
0
SEQEND
8
PLOT
999
URBANOS_PATH f.plot-e-01-05
0
POLYLINE
8
PLOT
66
1
70
1
10
0.000000
20
0.000000
30
0.000000
0
VERTEX
8
PLOT
10
148.500000
20
112.200000
30
0.000000
0
VERTEX
8
PLOT
10
154.500000
20
112.200000
30
0.000000
0
VERTEX
8
PLOT
10
154.500000
20
127.200000
30
0.000000
0
VERTEX
8
PLOT
10
148.500000
20
127.200000
30
0.000000
0
SEQEND
8
PLOT
999
URBANOS_PATH f.plot-e-01-06
0
POLYLINE
8
PLOT
66
1
70
1
10
0.000000
20
0.000000
30
0.000000
0
VERTEX
8
PLOT
10
154.500000
20
112.200000
30
0.000000
0
VERTEX
8
PLOT
10
160.500000
20
112.200000
30
0.000000
0
VERTEX
8
PLOT
10
160.500000
20
127.200000
30
0.000000
0
VERTEX
8
PLOT
10
154.500000
20
127.200000
30
0.000000
0
SEQEND
8
PLOT
999
URBANOS_PATH f.plot-e-01-07
0
POLYLINE
8
PLOT
66
1
70
1
10
0.000000
20
0.000000
30
0.000000
0
VERTEX
8
PLOT
10
160.500000
20
112.200000
30
0.000000
0
VERTEX
8
PLOT
10
166.500000
20
112.200000
30
0.000000
0
VERTEX
8
PLOT
10
166.500000
20
127.200000
30
0.000000
0
VERTEX
8
PLOT
10
160.500000
20
127.200000
30
0.000000
0
SEQEND
8
PLOT
999
URBANOS_PATH f.plot-e-01-08
0
POLYLINE
8
PLOT
66
1
70
1
10
0.000000
20
0.000000
30
0.000000
0
VERTEX
8
PLOT
10
166.500000
20
112.200000
30
0.000000
0
VERTEX
8
PLOT
10
172.500000
20
112.200000
30
0.000000
0
VERTEX
8
PLOT
10
172.500000
20
127.200000
30
0.000000
0
VERTEX
8
PLOT
10
166.500000
20
127.200000
30
0.000000
0
SEQEND
8
PLOT
999
URBANOS_PATH f.plot-e-01-09
0
POLYLINE
8
PLOT
66
1
70
1
10
0.000000
20
0.000000
30
0.000000
0
VERTEX
8
PLOT
10
172.500000
20
112.200000
30
0.000000
0
VERTEX
8
PLOT
10
178.500000
20
112.200000
30
0.000000
0
VERTEX
8
PLOT
10
178.500000
20
127.200000
30
0.000000
0
VERTEX
8
PLOT
10
172.500000
20
127.200000
30
0.000000
0
SEQEND
8
PLOT
999
URBANOS_PATH f.plot-e-01-10
0
POLYLINE
8
PLOT
66
1
70
1
10
0.000000
20
0.000000
30
0.000000
0
VERTEX
8
PLOT
10
178.500000
20
112.200000
30
0.000000
0
VERTEX
8
PLOT
10
184.500000
20
112.200000
30
0.000000
0
VERTEX
8
PLOT
10
184.500000
20
127.200000
30
0.000000
0
VERTEX
8
PLOT
10
178.500000
20
127.200000
30
0.000000
0
SEQEND
8
PLOT
999
URBANOS_PATH f.plot-e-01-11
0
POLYLINE
8
PLOT
66
1
70
1
10
0.000000
20
0.000000
30
0.000000
0
VERTEX
8
PLOT
10
184.500000
20
112.200000
30
0.000000
0
VERTEX
8
PLOT
10
190.500000
20
112.200000
30
0.000000
0
VERTEX
8
PLOT
10
190.500000
20
127.200000
30
0.000000
0
VERTEX
8
PLOT
10
184.500000
20
127.200000
30
0.000000
0
SEQEND
8
PLOT
999
URBANOS_PATH f.plot-e-01-12
0
POLYLINE
8
PLOT
66
1
70
1
10
0.000000
20
0.000000
30
0.000000
0
VERTEX
8
PLOT
10
199.500000
20
112.200000
30
0.000000
0
VERTEX
8
PLOT
10
205.500000
20
112.200000
30
0.000000
0
VERTEX
8
PLOT
10
205.500000
20
127.200000
30
0.000000
0
VERTEX
8
PLOT
10
199.500000
20
127.200000
30
0.000000
0
SEQEND
8
PLOT
999
URBANOS_PATH f.plot-e-01-13
0
POLYLINE
8
PLOT
66
1
70
1
10
0.000000
20
0.000000
30
0.000000
0
VERTEX
8
PLOT
10
205.500000
20
112.200000
30
0.000000
0
VERTEX
8
PLOT
10
211.500000
20
112.200000
30
0.000000
0
VERTEX
8
PLOT
10
211.500000
20
127.200000
30
0.000000
0
VERTEX
8
PLOT
10
205.500000
20
127.200000
30
0.000000
0
SEQEND
8
PLOT
999
URBANOS_PATH f.plot-e-02-00
0
POLYLINE
8
PLOT
66
1
70
1
10
0.000000
20
0.000000
30
0.000000
0
VERTEX
8
PLOT
10
118.500000
20
127.200000
30
0.000000
0
VERTEX
8
PLOT
10
124.500000
20
127.200000
30
0.000000
0
VERTEX
8
PLOT
10
124.500000
20
142.200000
30
0.000000
0
VERTEX
8
PLOT
10
118.500000
20
142.200000
30
0.000000
0
SEQEND
8
PLOT
999
URBANOS_PATH f.plot-e-02-01
0
POLYLINE
8
PLOT
66
1
70
1
10
0.000000
20
0.000000
30
0.000000
0
VERTEX
8
PLOT
10
124.500000
20
127.200000
30
0.000000
0
VERTEX
8
PLOT
10
130.500000
20
127.200000
30
0.000000
0
VERTEX
8
PLOT
10
130.500000
20
142.200000
30
0.000000
0
VERTEX
8
PLOT
10
124.500000
20
142.200000
30
0.000000
0
SEQEND
8
PLOT
999
URBANOS_PATH f.plot-e-02-02
0
POLYLINE
8
PLOT
66
1
70
1
10
0.000000
20
0.000000
30
0.000000
0
VERTEX
8
PLOT
10
130.500000
20
127.200000
30
0.000000
0
VERTEX
8
PLOT
10
136.500000
20
127.200000
30
0.000000
0
VERTEX
8
PLOT
10
136.500000
20
142.200000
30
0.000000
0
VERTEX
8
PLOT
10
130.500000
20
142.200000
30
0.000000
0
SEQEND
8
PLOT
999
URBANOS_PATH f.plot-e-02-03
0
POLYLINE
8
PLOT
66
1
70
1
10
0.000000
20
0.000000
30
0.000000
0
VERTEX
8
PLOT
10
136.500000
20
127.200000
30
0.000000
0
VERTEX
8
PLOT
10
142.500000
20
127.200000
30
0.000000
0
VERTEX
8
PLOT
10
142.500000
20
142.200000
30
0.000000
0
VERTEX
8
PLOT
10
136.500000
20
142.200000
30
0.000000
0
SEQEND
8
PLOT
999
URBANOS_PATH f.plot-e-02-04
0
POLYLINE
8
PLOT
66
1
70
1
10
0.000000
20
0.000000
30
0.000000
0
VERTEX
8
PLOT
10
142.500000
20
127.200000
30
0.000000
0
VERTEX
8
PLOT
10
148.500000
20
127.200000
30
0.000000
0
VERTEX
8
PLOT
10
148.500000
20
142.200000
30
0.000000
0
VERTEX
8
PLOT
10
142.500000
20
142.200000
30
0.000000
0
SEQEND
8
PLOT
999
URBANOS_PATH f.plot-e-02-05
0
POLYLINE
8
PLOT
66
1
70
1
10
0.000000
20
0.000000
30
0.000000
0
VERTEX
8
PLOT
10
148.500000
20
127.200000
30
0.000000
0
VERTEX
8
PLOT
10
154.500000
20
127.200000
30
0.000000
0
VERTEX
8
PLOT
10
154.500000
20
142.200000
30
0.000000
0
VERTEX
8
PLOT
10
148.500000
20
142.200000
30
0.000000
0
SEQEND
8
PLOT
999
URBANOS_PATH f.plot-e-02-06
0
POLYLINE
8
PLOT
66
1
70
1
10
0.000000
20
0.000000
30
0.000000
0
VERTEX
8
PLOT
10
154.500000
20
127.200000
30
0.000000
0
VERTEX
8
PLOT
10
160.500000
20
127.200000
30
0.000000
0
VERTEX
8
PLOT
10
160.500000
20
142.200000
30
0.000000
0
VERTEX
8
PLOT
10
154.500000
20
142.200000
30
0.000000
0
SEQEND
8
PLOT
999
URBANOS_PATH f.plot-e-02-07
0
POLYLINE
8
PLOT
66
1
70
1
10
0.000000
20
0.000000
30
0.000000
0
VERTEX
8
PLOT
10
160.500000
20
127.200000
30
0.000000
0
VERTEX
8
PLOT
10
166.500000
20
127.200000
30
0.000000
0
VERTEX
8
PLOT
10
166.500000
20
142.200000
30
0.000000
0
VERTEX
8
PLOT
10
160.500000
20
142.200000
30
0.000000
0
SEQEND
8
PLOT
999
URBANOS_PATH f.plot-e-02-08
0
POLYLINE
8
PLOT
66
1
70
1
10
0.000000
20
0.000000
30
0.000000
0
VERTEX
8
PLOT
10
166.500000
20
127.200000
30
0.000000
0
VERTEX
8
PLOT
10
172.500000
20
127.200000
30
0.000000
0
VERTEX
8
PLOT
10
172.500000
20
142.200000
30
0.000000
0
VERTEX
8
PLOT
10
166.500000
20
142.200000
30
0.000000
0
SEQEND
8
PLOT
999
URBANOS_PATH f.plot-e-02-09
0
POLYLINE
8
PLOT
66
1
70
1
10
0.000000
20
0.000000
30
0.000000
0
VERTEX
8
PLOT
10
172.500000
20
127.200000
30
0.000000
0
VERTEX
8
PLOT
10
178.500000
20
127.200000
30
0.000000
0
VERTEX
8
PLOT
10
178.500000
20
142.200000
30
0.000000
0
VERTEX
8
PLOT
10
172.500000
20
142.200000
30
0.000000
0
SEQEND
8
PLOT
999
URBANOS_PATH f.plot-e-02-10
0
POLYLINE
8
PLOT
66
1
70
1
10
0.000000
20
0.000000
30
0.000000
0
VERTEX
8
PLOT
10
178.500000
20
127.200000
30
0.000000
0
VERTEX
8
PLOT
10
184.500000
20
127.200000
30
0.000000
0
VERTEX
8
PLOT
10
184.500000
20
142.200000
30
0.000000
0
VERTEX
8
PLOT
10
178.500000
20
142.200000
30
0.000000
0
SEQEND
8
PLOT
999
URBANOS_PATH f.plot-e-02-11
0
POLYLINE
8
PLOT
66
1
70
1
10
0.000000
20
0.000000
30
0.000000
0
VERTEX
8
PLOT
10
184.500000
20
127.200000
30
0.000000
0
VERTEX
8
PLOT
10
190.500000
20
127.200000
30
0.000000
0
VERTEX
8
PLOT
10
190.500000
20
142.200000
30
0.000000
0
VERTEX
8
PLOT
10
184.500000
20
142.200000
30
0.000000
0
SEQEND
8
PLOT
999
URBANOS_PATH f.plot-e-02-12
0
POLYLINE
8
PLOT
66
1
70
1
10
0.000000
20
0.000000
30
0.000000
0
VERTEX
8
PLOT
10
199.500000
20
127.200000
30
0.000000
0
VERTEX
8
PLOT
10
205.500000
20
127.200000
30
0.000000
0
VERTEX
8
PLOT
10
205.500000
20
142.200000
30
0.000000
0
VERTEX
8
PLOT
10
199.500000
20
142.200000
30
0.000000
0
SEQEND
8
PLOT
999
URBANOS_PATH f.plot-e-02-13
0
POLYLINE
8
PLOT
66
1
70
1
10
0.000000
20
0.000000
30
0.000000
0
VERTEX
8
PLOT
10
205.500000
20
127.200000
30
0.000000
0
VERTEX
8
PLOT
10
211.500000
20
127.200000
30
0.000000
0
VERTEX
8
PLOT
10
211.500000
20
142.200000
30
0.000000
0
VERTEX
8
PLOT
10
205.500000
20
142.200000
30
0.000000
0
SEQEND
8
PLOT
999
URBANOS_PATH f.plot-e-03-00
0
POLYLINE
8
PLOT
66
1
70
1
10
0.000000
20
0.000000
30
0.000000
0
VERTEX
8
PLOT
10
118.500000
20
151.200000
30
0.000000
0
VERTEX
8
PLOT
10
124.500000
20
151.200000
30
0.000000
0
VERTEX
8
PLOT
10
124.500000
20
166.200000
30
0.000000
0
VERTEX
8
PLOT
10
118.500000
20
166.200000
30
0.000000
0
SEQEND
8
PLOT
999
URBANOS_PATH f.plot-e-03-01
0
POLYLINE
8
PLOT
66
1
70
1
10
0.000000
20
0.000000
30
0.000000
0
VERTEX
8
PLOT
10
124.500000
20
151.200000
30
0.000000
0
VERTEX
8
PLOT
10
130.500000
20
151.200000
30
0.000000
0
VERTEX
8
PLOT
10
130.500000
20
166.200000
30
0.000000
0
VERTEX
8
PLOT
10
124.500000
20
166.200000
30
0.000000
0
SEQEND
8
PLOT
999
URBANOS_PATH f.plot-e-03-02
0
POLYLINE
8
PLOT
66
1
70
1
10
0.000000
20
0.000000
30
0.000000
0
VERTEX
8
PLOT
10
130.500000
20
151.200000
30
0.000000
0
VERTEX
8
PLOT
10
136.500000
20
151.200000
30
0.000000
0
VERTEX
8
PLOT
10
136.500000
20
166.200000
30
0.000000
0
VERTEX
8
PLOT
10
130.500000
20
166.200000
30
0.000000
0
SEQEND
8
PLOT
999
URBANOS_PATH f.plot-e-03-03
0
POLYLINE
8
PLOT
66
1
70
1
10
0.000000
20
0.000000
30
0.000000
0
VERTEX
8
PLOT
10
136.500000
20
151.200000
30
0.000000
0
VERTEX
8
PLOT
10
142.500000
20
151.200000
30
0.000000
0
VERTEX
8
PLOT
10
142.500000
20
166.200000
30
0.000000
0
VERTEX
8
PLOT
10
136.500000
20
166.200000
30
0.000000
0
SEQEND
8
PLOT
999
URBANOS_PATH f.plot-e-03-04
0
POLYLINE
8
PLOT
66
1
70
1
10
0.000000
20
0.000000
30
0.000000
0
VERTEX
8
PLOT
10
142.500000
20
151.200000
30
0.000000
0
VERTEX
8
PLOT
10
148.500000
20
151.200000
30
0.000000
0
VERTEX
8
PLOT
10
148.500000
20
166.200000
30
0.000000
0
VERTEX
8
PLOT
10
142.500000
20
166.200000
30
0.000000
0
SEQEND
8
PLOT
999
URBANOS_PATH f.plot-e-03-05
0
POLYLINE
8
PLOT
66
1
70
1
10
0.000000
20
0.000000
30
0.000000
0
VERTEX
8
PLOT
10
148.500000
20
151.200000
30
0.000000
0
VERTEX
8
PLOT
10
154.500000
20
151.200000
30
0.000000
0
VERTEX
8
PLOT
10
154.500000
20
166.200000
30
0.000000
0
VERTEX
8
PLOT
10
148.500000
20
166.200000
30
0.000000
0
SEQEND
8
PLOT
999
URBANOS_PATH f.plot-e-03-06
0
POLYLINE
8
PLOT
66
1
70
1
10
0.000000
20
0.000000
30
0.000000
0
VERTEX
8
PLOT
10
154.500000
20
151.200000
30
0.000000
0
VERTEX
8
PLOT
10
160.500000
20
151.200000
30
0.000000
0
VERTEX
8
PLOT
10
160.500000
20
166.200000
30
0.000000
0
VERTEX
8
PLOT
10
154.500000
20
166.200000
30
0.000000
0
SEQEND
8
PLOT
999
URBANOS_PATH f.plot-e-03-07
0
POLYLINE
8
PLOT
66
1
70
1
10
0.000000
20
0.000000
30
0.000000
0
VERTEX
8
PLOT
10
160.500000
20
151.200000
30
0.000000
0
VERTEX
8
PLOT
10
166.500000
20
151.200000
30
0.000000
0
VERTEX
8
PLOT
10
166.500000
20
166.200000
30
0.000000
0
VERTEX
8
PLOT
10
160.500000
20
166.200000
30
0.000000
0
SEQEND
8
PLOT
999
URBANOS_PATH f.plot-e-03-08
0
POLYLINE
8
PLOT
66
1
70
1
10
0.000000
20
0.000000
30
0.000000
0
VERTEX
8
PLOT
10
166.500000
20
151.200000
30
0.000000
0
VERTEX
8
PLOT
10
172.500000
20
151.200000
30
0.000000
0
VERTEX
8
PLOT
10
172.500000
20
166.200000
30
0.000000
0
VERTEX
8
PLOT
10
166.500000
20
166.200000
30
0.000000
0
SEQEND
8
PLOT
999
URBANOS_PATH f.plot-e-03-09
0
POLYLINE
8
PLOT
66
1
70
1
10
0.000000
20
0.000000
30
0.000000
0
VERTEX
8
PLOT
10
172.500000
20
151.200000
30
0.000000
0
VERTEX
8
PLOT
10
178.500000
20
151.200000
30
0.000000
0
VERTEX
8
PLOT
10
178.500000
20
166.200000
30
0.000000
0
VERTEX
8
PLOT
10
172.500000
20
166.200000
30
0.000000
0
SEQEND
8
PLOT
999
URBANOS_PATH f.plot-e-03-10
0
POLYLINE
8
PLOT
66
1
70
1
10
0.000000
20
0.000000
30
0.000000
0
VERTEX
8
PLOT
10
178.500000
20
151.200000
30
0.000000
0
VERTEX
8
PLOT
10
184.500000
20
151.200000
30
0.000000
0
VERTEX
8
PLOT
10
184.500000
20
166.200000
30
0.000000
0
VERTEX
8
PLOT
10
178.500000
20
166.200000
30
0.000000
0
SEQEND
8
PLOT
999
URBANOS_PATH f.plot-e-03-11
0
POLYLINE
8
PLOT
66
1
70
1
10
0.000000
20
0.000000
30
0.000000
0
VERTEX
8
PLOT
10
184.500000
20
151.200000
30
0.000000
0
VERTEX
8
PLOT
10
190.500000
20
151.200000
30
0.000000
0
VERTEX
8
PLOT
10
190.500000
20
166.200000
30
0.000000
0
VERTEX
8
PLOT
10
184.500000
20
166.200000
30
0.000000
0
SEQEND
8
PLOT
999
URBANOS_PATH f.plot-e-03-12
0
POLYLINE
8
PLOT
66
1
70
1
10
0.000000
20
0.000000
30
0.000000
0
VERTEX
8
PLOT
10
199.500000
20
151.200000
30
0.000000
0
VERTEX
8
PLOT
10
205.500000
20
151.200000
30
0.000000
0
VERTEX
8
PLOT
10
205.500000
20
166.200000
30
0.000000
0
VERTEX
8
PLOT
10
199.500000
20
166.200000
30
0.000000
0
SEQEND
8
PLOT
999
URBANOS_PATH f.plot-e-03-13
0
POLYLINE
8
PLOT
66
1
70
1
10
0.000000
20
0.000000
30
0.000000
0
VERTEX
8
PLOT
10
205.500000
20
151.200000
30
0.000000
0
VERTEX
8
PLOT
10
211.500000
20
151.200000
30
0.000000
0
VERTEX
8
PLOT
10
211.500000
20
166.200000
30
0.000000
0
VERTEX
8
PLOT
10
205.500000
20
166.200000
30
0.000000
0
SEQEND
8
PLOT
999
URBANOS_PATH anno.north-arrow
0
POLYLINE
8
ANNOTATION
66
1
70
1
10
0.000000
20
0.000000
30
0.000000
0
VERTEX
8
ANNOTATION
10
-16.500000
20
170.000000
30
0.000000
0
VERTEX
8
ANNOTATION
10
-11.500000
20
170.000000
30
0.000000
0
VERTEX
8
ANNOTATION
10
-14.000000
20
178.000000
30
0.000000
0
SEQEND
8
ANNOTATION
999
URBANOS_PATH anno.dim-width-line
0
POLYLINE
8
DIMENSION
66
1
70
0
10
0.000000
20
0.000000
30
0.000000
0
VERTEX
8
DIMENSION
10
0.000000
20
-10.000000
30
0.000000
0
VERTEX
8
DIMENSION
10
225.000000
20
-10.000000
30
0.000000
0
SEQEND
8
DIMENSION
999
URBANOS_PATH anno.dim-width-tick-a
0
POLYLINE
8
DIMENSION
66
1
70
0
10
0.000000
20
0.000000
30
0.000000
0
VERTEX
8
DIMENSION
10
0.000000
20
-12.000000
30
0.000000
0
VERTEX
8
DIMENSION
10
0.000000
20
-8.000000
30
0.000000
0
SEQEND
8
DIMENSION
999
URBANOS_PATH anno.dim-width-tick-b
0
POLYLINE
8
DIMENSION
66
1
70
0
10
0.000000
20
0.000000
30
0.000000
0
VERTEX
8
DIMENSION
10
225.000000
20
-12.000000
30
0.000000
0
VERTEX
8
DIMENSION
10
225.000000
20
-8.000000
30
0.000000
0
SEQEND
8
DIMENSION
999
URBANOS_PATH anno.dim-depth-line
0
POLYLINE
8
DIMENSION
66
1
70
0
10
0.000000
20
0.000000
30
0.000000
0
VERTEX
8
DIMENSION
10
-10.000000
20
0.000000
30
0.000000
0
VERTEX
8
DIMENSION
10
-10.000000
20
180.000000
30
0.000000
0
SEQEND
8
DIMENSION
999
URBANOS_PATH anno.dim-depth-tick-a
0
POLYLINE
8
DIMENSION
66
1
70
0
10
0.000000
20
0.000000
30
0.000000
0
VERTEX
8
DIMENSION
10
-12.000000
20
0.000000
30
0.000000
0
VERTEX
8
DIMENSION
10
-8.000000
20
0.000000
30
0.000000
0
SEQEND
8
DIMENSION
999
URBANOS_PATH anno.dim-depth-tick-b
0
POLYLINE
8
DIMENSION
66
1
70
0
10
0.000000
20
0.000000
30
0.000000
0
VERTEX
8
DIMENSION
10
-12.000000
20
180.000000
30
0.000000
0
VERTEX
8
DIMENSION
10
-8.000000
20
180.000000
30
0.000000
0
SEQEND
8
DIMENSION
999
URBANOS_TEXT anno.north-label
0
TEXT
8
ANNOTATION
10
-14.000000
20
165.000000
30
0.000000
40
3.000000
1
N (DECLARED)
50
0.000000
7
STANDARD
72
1
73
2
11
-14.000000
21
165.000000
31
0.000000
999
URBANOS_TEXT anno.watermark-demo
0
TEXT
8
WATERMARK
10
112.500000
20
90.000000
30
0.000000
40
45.000000
1
DEMO
50
30.000000
7
STANDARD
72
1
73
2
11
112.500000
21
90.000000
31
0.000000
999
URBANOS_TEXT anno.dim-width-text
0
TEXT
8
DIMENSION
10
112.500000
20
-16.000000
30
0.000000
40
2.400000
1
225.000 m
50
0.000000
7
STANDARD
72
1
73
2
11
112.500000
21
-16.000000
31
0.000000
999
URBANOS_TEXT anno.dim-depth-text
0
TEXT
8
DIMENSION
10
-16.000000
20
90.000000
30
0.000000
40
2.400000
1
180.000 m
50
90.000000
7
STANDARD
72
1
73
2
11
-16.000000
21
90.000000
31
0.000000
999
URBANOS_TEXT anno.setback-front
0
TEXT
8
DIMENSION
10
56.250000
20
7.000000
30
0.000000
40
1.950000
1
FRONT SETBACK 12.000 m [DEMO-A-SETBACK-FRONT]
50
0.000000
7
STANDARD
72
1
73
2
11
56.250000
21
7.000000
31
0.000000
999
URBANOS_TEXT anno.setback-periphery
0
TEXT
8
DIMENSION
10
168.750000
20
175.000000
30
0.000000
40
1.950000
1
PERIPHERY SETBACK 9.000 m [DEMO-A-SETBACK-PERIPHERY]
50
0.000000
7
STANDARD
72
1
73
2
11
168.750000
21
175.000000
31
0.000000
999
URBANOS_TEXT anno.spine-width
0
TEXT
8
DIMENSION
10
112.500000
20
111.600000
30
0.000000
40
1.950000
1
12.000 m ROW [DEMO-A-ROAD-WIDTH-PRIMARY]
50
90.000000
7
STANDARD
72
1
73
2
11
112.500000
21
111.600000
31
0.000000
999
URBANOS_TEXT anno.secondary-width
0
TEXT
8
DIMENSION
10
23.000000
20
62.700000
30
0.000000
40
1.650000
1
9.000 m ROW [DEMO-A-ROAD-WIDTH-SECONDARY]
50
0.000000
7
STANDARD
72
0
73
2
11
23.000000
21
62.700000
31
0.000000
999
URBANOS_TEXT anno.plot-dims
0
TEXT
8
DIMENSION
10
12.000000
20
39.200000
30
0.000000
40
1.650000
1
TYP. PLOT 6.000 x 15.000 m [DEMO-A-UNIT-PLOT-FRONTAGE-MIN, DEMO-A-UNIT-PLOT-DEPTH-MIN]
50
0.000000
7
STANDARD
72
0
73
2
11
12.000000
21
39.200000
31
0.000000
999
URBANOS_TEXT anno.access-road
0
TEXT
8
DIMENSION
10
112.500000
20
-22.000000
30
0.000000
40
1.950000
1
EXTERNAL ACCESS ROAD (SOUTH) 24.000 m - DECLARED FIXTURE INPUT
50
0.000000
7
STANDARD
72
1
73
2
11
112.500000
21
-22.000000
31
0.000000
999
URBANOS_TEXT anno.label-club
0
TEXT
8
TEXT
10
130.500000
20
58.200000
30
0.000000
40
1.950000
1
CLUB
50
0.000000
7
STANDARD
72
1
73
2
11
130.500000
21
58.200000
31
0.000000
999
URBANOS_TEXT anno.label-pool
0
TEXT
8
TEXT
10
144.000000
20
55.200000
30
0.000000
40
1.650000
1
POOL
50
0.000000
7
STANDARD
72
1
73
2
11
144.000000
21
55.200000
31
0.000000
999
URBANOS_TEXT anno.label-green-west
0
TEXT
8
TEXT
10
57.750000
20
18.000000
30
0.000000
40
2.250000
1
GREEN / OPEN
50
0.000000
7
STANDARD
72
1
73
2
11
57.750000
21
18.000000
31
0.000000
999
URBANOS_TEXT anno.label-gate
0
TEXT
8
TEXT
10
112.500000
20
-4.000000
30
0.000000
40
1.950000
1
ENTRY GATE
50
0.000000
7
STANDARD
72
1
73
2
11
112.500000
21
-4.000000
31
0.000000
999
URBANOS_TEXT anno.stamp-title-area
0
TEXT
8
ANNOTATION
10
-26.500000
20
-42.000000
30
0.000000
40
3.000000
1
Research Draft - Not for Construction - DEMO
50
0.000000
7
STANDARD
72
0
73
2
11
-26.500000
21
-42.000000
31
0.000000
999
URBANOS_TEXT anno.title-line-0
0
TEXT
8
ANNOTATION
10
-26.500000
20
-47.000000
30
0.000000
40
1.800000
1
SLICE: DEMO-SLICE-A | SCALE 1:750 | UNITS: METRES | NORTH: DECLARED (PLAN-UP)
50
0.000000
7
STANDARD
72
0
73
2
11
-26.500000
21
-47.000000
31
0.000000
999
URBANOS_TEXT anno.title-line-1
0
TEXT
8
ANNOTATION
10
-26.500000
20
-51.000000
30
0.000000
40
1.800000
1
PLACED IN THIS REFERENCE LAYOUT: 140 DU | REQUESTED (INTENT): 500 DU | DENSITY CEILING: 400 DU
50
0.000000
7
STANDARD
72
0
73
2
11
-26.500000
21
-51.000000
31
0.000000
999
URBANOS_TEXT anno.title-line-2
0
TEXT
8
ANNOTATION
10
-26.500000
20
-55.000000
30
0.000000
40
1.800000
1
HEIGHT CAP 12.000 m / G+2 [DEMO-A-HEIGHT-MAX, DEMO-A-STOREYS-MAX] - CITED LIMITS, NO ELEVATIONS DRAWN IN v0
50
0.000000
7
STANDARD
72
0
73
2
11
-26.500000
21
-55.000000
31
0.000000
999
URBANOS_TEXT anno.title-line-3
0
TEXT
8
ANNOTATION
10
-26.500000
20
-59.000000
30
0.000000
40
1.800000
1
PARKING: 280 ECS REQUIRED [DEMO-A-PARKING-ECS-PER-DU] - ON-PLOT (STILT), NOT DRAWN IN v0
50
0.000000
7
STANDARD
72
0
73
2
11
-26.500000
21
-59.000000
31
0.000000
999
URBANOS_TEXT anno.title-line-4
0
TEXT
8
ANNOTATION
10
-26.500000
20
-63.000000
30
0.000000
40
1.800000
1
ALL RULE VALUES ARE DEMO - ILLUSTRATIVE, UNVERIFIED; NO REAL JURISDICTION IS REPRESENTED
50
0.000000
7
STANDARD
72
0
73
2
11
-26.500000
21
-63.000000
31
0.000000
999
URBANOS_TEXT anno.title-line-5
0
TEXT
8
ANNOTATION
10
-26.500000
20
-67.000000
30
0.000000
40
1.800000
1
AXIS-ALIGNED v0 REFERENCE LAYOUT - ONE FIXED IMAGINARY SITE, NO GENERAL SITE SOLVER
50
0.000000
7
STANDARD
72
0
73
2
11
-26.500000
21
-67.000000
31
0.000000
999
URBANOS_TEXT anno.title-line-6
0
TEXT
8
ANNOTATION
10
-26.500000
20
-71.000000
30
0.000000
40
1.800000
1
FIXTURE b7a5c46d9e58a3dd... RULEBOOK fd6c579f1d7fb32b... GEOMETRY 1182bdecd34e9d85...
50
0.000000
7
STANDARD
72
0
73
2
11
-26.500000
21
-71.000000
31
0.000000
0
ENDSEC
0
EOF
